<svg width="678" height="506" viewBox="0 0 678 506" fill="none" xmlns="http://www.w3.org/2000/svg">
<g clip-path="url(#clip0_102_61)">
<path d="M125.425 341.006C125.665 341.327 125.738 341.726 125.65 342.086C125.588 342.384 125.414 342.662 125.147 342.863C124.926 343.03 124.671 343.115 124.411 343.119C124.392 343.123 124.377 343.123 124.353 343.123C123.951 343.123 123.545 342.933 123.29 342.581L118.74 336.437V339.896C118.74 340.631 118.148 341.223 117.413 341.223C116.678 341.223 116.086 340.631 116.086 339.896V336.549L112.198 342.798C111.811 343.42 110.991 343.61 110.368 343.223C109.745 342.836 109.555 342.016 109.942 341.393L115.637 332.243L116.09 331.512V330.417C115.78 330.638 115.459 330.843 115.13 331.036C112.906 332.352 110.31 333.102 107.536 333.102C104.592 333.102 101.849 332.251 99.535 330.777C99.3029 330.642 99.0785 330.487 98.858 330.324V331.973L98.9624 332.116L105.543 341.006C105.984 341.594 105.857 342.43 105.265 342.863C105.029 343.041 104.75 343.126 104.472 343.126C104.069 343.126 103.663 342.937 103.408 342.585L98.858 336.441V339.9C98.858 340.635 98.266 341.227 97.531 341.227C96.7959 341.227 96.204 340.635 96.204 339.9V336.553L92.3158 342.801C92.0372 343.254 91.5343 343.475 91.0391 343.417C90.8456 343.397 90.6561 343.339 90.482 343.227C90.215 343.061 90.0255 342.813 89.9326 342.534C89.8011 342.167 89.8398 341.753 90.0603 341.397L95.7552 332.247L96.2078 331.516V327.91C94.2812 325.686 93.0083 322.892 92.6717 319.821H80.129C80.485 313.816 82.7676 308.338 86.3733 303.989C89.0815 306.055 92.2616 307.731 95.759 308.899C99.3841 310.11 103.357 310.779 107.528 310.779C111.699 310.779 115.672 310.114 119.297 308.899C122.798 307.731 125.971 306.055 128.679 303.989C132.285 308.338 134.567 313.816 134.923 319.821H122.392C122.044 322.958 120.725 325.81 118.736 328.053V331.98L118.84 332.123L125.425 341.006Z" fill="white"/>
<path d="M101.024 293.099C102.706 293.099 104.069 291.498 104.069 289.524C104.069 287.55 102.706 285.949 101.024 285.949C99.3429 285.949 97.9797 287.55 97.9797 289.524C97.9797 291.498 99.3429 293.099 101.024 293.099Z" fill="white"/>
<path d="M114.039 293.099C115.721 293.099 117.084 291.498 117.084 289.524C117.084 287.55 115.721 285.949 114.039 285.949C112.358 285.949 110.994 287.55 110.994 289.524C110.994 291.498 112.358 293.099 114.039 293.099Z" fill="white"/>
<path d="M137.09 257.796L108.108 251.172L106.65 250.836C106.565 250.82 106.483 250.82 106.398 250.84L105.512 251.072L76.3995 258.581C75.8694 258.724 75.8656 259.475 76.3956 259.622L80.1058 260.62V270.033L79.1076 270.06L77.3551 289.841H82.4812C83.2782 294.128 85.731 297.985 89.2981 300.964C91.9328 303.169 95.1748 304.899 98.8115 305.97C101.531 306.779 104.468 307.212 107.532 307.212C110.596 307.212 113.536 306.771 116.252 305.97C119.885 304.895 123.127 303.169 125.762 300.96C130.161 297.293 132.857 292.298 132.857 286.793C132.857 280.97 129.836 275.716 124.988 272.002H128.114C128.516 272.002 128.717 271.518 128.427 271.236L120.759 263.669L137.121 258.833C137.651 258.678 137.627 257.923 137.09 257.796ZM82.6166 283.082L82.2027 269.971L81.3632 269.998V260.961L92.4667 263.951L85.0927 271.236C84.8025 271.518 85.0037 272.002 85.4061 272.002H90.0719C86.2804 274.908 83.6032 278.753 82.6166 283.082ZM124.736 288.336C124.736 292.135 123.224 295.494 120.922 297.513C119.475 298.79 117.711 299.533 115.811 299.533C114.233 299.533 112.747 299.018 111.463 298.109L108.843 303.231L107.454 305.951L105.953 303.254L103.226 298.337C102.019 299.103 100.653 299.533 99.21 299.533C97.3143 299.533 95.5578 298.794 94.1148 297.529C91.8012 295.509 90.2846 292.143 90.2846 288.336C90.2846 282.154 94.2811 277.144 99.21 277.144C102.978 277.144 106.205 280.072 107.512 284.212C108.82 280.072 112.047 277.144 115.815 277.144C120.74 277.144 124.736 282.154 124.736 288.336Z" fill="white"/>
<path d="M170.3 279.128H187.175V321.276H170.3V279.128ZM178.777 270.456C177.292 270.456 175.899 270.299 174.597 269.987C173.295 269.674 172.162 269.245 171.199 268.698C170.261 268.151 169.506 267.487 168.933 266.706C168.386 265.924 168.113 265.065 168.113 264.128C168.113 263.086 168.386 262.174 168.933 261.393C169.48 260.586 170.235 259.922 171.199 259.401C172.162 258.88 173.295 258.49 174.597 258.229C175.899 257.969 177.306 257.839 178.816 257.839C180.326 257.839 181.733 257.969 183.035 258.229C184.363 258.49 185.509 258.88 186.472 259.401C187.436 259.922 188.191 260.586 188.738 261.393C189.285 262.174 189.558 263.086 189.558 264.128C189.558 265.065 189.272 265.924 188.699 266.706C188.152 267.487 187.397 268.151 186.433 268.698C185.47 269.245 184.324 269.674 182.996 269.987C181.694 270.299 180.287 270.456 178.777 270.456ZM239.792 280.378C238.725 279.909 237.475 279.44 236.042 278.971C234.636 278.477 233.152 278.034 231.589 277.643C230.053 277.253 228.49 276.94 226.902 276.706C225.313 276.445 223.816 276.315 222.41 276.315C219.962 276.315 218.048 276.628 216.667 277.253C215.287 277.878 214.597 278.932 214.597 280.417C214.597 281.12 214.832 281.745 215.3 282.292C215.795 282.813 216.485 283.307 217.371 283.776C218.256 284.219 219.311 284.661 220.535 285.104C221.785 285.521 223.165 285.964 224.675 286.432L227.527 287.331C229.923 288.06 232.071 288.945 233.972 289.987C235.873 291.003 237.475 292.214 238.777 293.62C240.105 295 241.121 296.589 241.824 298.385C242.527 300.182 242.878 302.227 242.878 304.518C242.878 307.201 242.449 309.648 241.589 311.862C240.756 314.049 239.441 315.924 237.644 317.487C235.847 319.049 233.542 320.26 230.73 321.12C227.944 321.979 224.584 322.409 220.652 322.409C217.162 322.409 213.686 322.122 210.222 321.549C206.785 320.977 203.308 319.974 199.792 318.542V305.651C203.152 307.37 206.407 308.633 209.558 309.44C212.735 310.221 215.86 310.612 218.933 310.612C221.459 310.612 223.295 310.208 224.441 309.401C225.613 308.594 226.199 307.474 226.199 306.042C226.199 305.182 225.977 304.453 225.535 303.854C225.118 303.229 224.428 302.656 223.464 302.135C222.527 301.615 221.29 301.094 219.753 300.573C218.217 300.026 216.355 299.414 214.167 298.737C211.98 298.086 209.949 297.266 208.074 296.276C206.225 295.286 204.623 294.102 203.269 292.721C201.915 291.315 200.847 289.688 200.066 287.839C199.311 285.99 198.933 283.88 198.933 281.51C198.933 279.063 199.363 276.823 200.222 274.792C201.082 272.76 202.397 271.029 204.167 269.596C205.938 268.138 208.178 267.005 210.886 266.198C213.621 265.391 216.863 264.987 220.613 264.987C222.097 264.987 223.673 265.052 225.339 265.182C227.006 265.313 228.699 265.508 230.417 265.768C232.162 266.029 233.881 266.367 235.574 266.784C237.266 267.201 238.868 267.695 240.378 268.268L239.792 280.378ZM293.347 319.596C290.899 320.404 288.256 321.068 285.417 321.589C282.579 322.135 279.623 322.409 276.55 322.409C273.191 322.409 269.988 321.966 266.941 321.081C263.894 320.195 261.212 318.815 258.894 316.94C256.576 315.065 254.727 312.695 253.347 309.831C251.993 306.94 251.316 303.503 251.316 299.518C251.316 297.253 251.667 295.156 252.371 293.229C253.074 291.276 254.024 289.505 255.222 287.917C256.446 286.328 257.865 284.922 259.48 283.698C261.121 282.474 262.865 281.445 264.714 280.612C266.589 279.779 268.516 279.154 270.496 278.737C272.475 278.294 274.415 278.073 276.316 278.073C279.311 278.073 281.954 278.411 284.246 279.089C286.537 279.74 288.438 280.625 289.949 281.745C291.485 282.865 292.644 284.167 293.425 285.651C294.207 287.135 294.597 288.711 294.597 290.378C294.597 292.409 294.246 294.141 293.542 295.573C292.865 297.005 291.941 298.216 290.769 299.206C289.623 300.169 288.282 300.938 286.746 301.51C285.235 302.057 283.634 302.487 281.941 302.799C280.248 303.086 278.516 303.268 276.746 303.346C275.001 303.424 273.334 303.464 271.746 303.464C271.199 303.464 270.665 303.464 270.144 303.464C269.649 303.438 269.154 303.424 268.66 303.424C268.868 304.909 269.272 306.159 269.871 307.174C270.496 308.19 271.264 309.023 272.175 309.674C273.113 310.299 274.181 310.755 275.378 311.042C276.602 311.302 277.904 311.432 279.285 311.432C280.326 311.432 281.433 311.354 282.605 311.198C283.803 311.042 285.001 310.833 286.199 310.573C287.423 310.286 288.634 309.974 289.832 309.635C291.056 309.271 292.227 308.893 293.347 308.503V319.596ZM268.308 297.409C268.933 297.383 269.727 297.344 270.691 297.292C271.681 297.24 272.722 297.148 273.816 297.018C274.91 296.888 276.003 296.706 277.097 296.471C278.191 296.237 279.181 295.938 280.066 295.573C280.951 295.208 281.667 294.753 282.214 294.206C282.761 293.659 283.035 292.995 283.035 292.214C283.035 290.885 282.501 289.831 281.433 289.049C280.391 288.242 278.933 287.839 277.058 287.839C276.199 287.839 275.274 287.969 274.285 288.229C273.295 288.464 272.371 288.932 271.511 289.635C270.652 290.339 269.923 291.315 269.324 292.565C268.725 293.815 268.386 295.43 268.308 297.409ZM315.144 322.409C313.477 322.409 311.876 322.174 310.339 321.706C308.829 321.237 307.488 320.521 306.316 319.557C305.144 318.594 304.207 317.383 303.503 315.924C302.826 314.44 302.488 312.695 302.488 310.69C302.488 308.763 302.8 307.096 303.425 305.69C304.05 304.258 304.884 303.034 305.925 302.018C306.993 301.003 308.23 300.169 309.636 299.518C311.069 298.841 312.579 298.32 314.167 297.956C315.756 297.565 317.384 297.305 319.05 297.174C320.743 297.018 322.384 296.94 323.972 296.94C325.066 296.94 326.121 296.966 327.136 297.018C328.152 297.07 329.102 297.135 329.988 297.214C329.936 295.573 329.623 294.219 329.05 293.151C328.477 292.057 327.722 291.198 326.785 290.573C325.847 289.922 324.753 289.466 323.503 289.206C322.253 288.945 320.938 288.815 319.558 288.815C318.282 288.815 316.967 288.906 315.613 289.089C314.285 289.245 312.983 289.453 311.707 289.714C310.431 289.948 309.207 290.208 308.035 290.495C306.889 290.781 305.873 291.042 304.988 291.276V280.339C306.264 280.052 307.631 279.779 309.089 279.518C310.574 279.232 312.11 278.984 313.699 278.776C315.287 278.568 316.902 278.398 318.542 278.268C320.209 278.138 321.85 278.073 323.464 278.073C325.47 278.073 327.436 278.203 329.363 278.464C331.316 278.698 333.152 279.102 334.871 279.674C336.615 280.247 338.217 281.016 339.675 281.979C341.16 282.943 342.423 284.141 343.464 285.573C344.532 286.979 345.365 288.646 345.964 290.573C346.563 292.5 346.863 294.727 346.863 297.253V321.276H330.769V314.284C330.144 315.56 329.272 316.706 328.152 317.721C327.032 318.711 325.769 319.557 324.363 320.26C322.957 320.964 321.459 321.497 319.871 321.862C318.282 322.227 316.707 322.409 315.144 322.409ZM321.746 313.229C322.475 313.229 323.308 313.034 324.246 312.643C325.209 312.227 326.108 311.602 326.941 310.768C327.8 309.935 328.516 308.88 329.089 307.604C329.688 306.328 329.988 304.805 329.988 303.034H328.699C327.449 303.034 326.16 303.164 324.832 303.424C323.529 303.685 322.332 304.076 321.238 304.596C320.144 305.117 319.246 305.755 318.542 306.51C317.839 307.266 317.488 308.138 317.488 309.128C317.488 309.909 317.618 310.56 317.878 311.081C318.139 311.602 318.464 312.031 318.855 312.37C319.272 312.682 319.727 312.904 320.222 313.034C320.743 313.164 321.251 313.229 321.746 313.229ZM358.191 279.128H374.246C374.194 279.805 374.154 280.56 374.128 281.393C374.102 282.201 374.089 283.06 374.089 283.971C374.089 284.857 374.089 285.755 374.089 286.667C374.089 287.578 374.089 288.451 374.089 289.284C374.61 288.008 375.287 286.706 376.121 285.378C376.954 284.023 377.931 282.813 379.05 281.745C380.196 280.677 381.485 279.805 382.917 279.128C384.376 278.424 386.003 278.073 387.8 278.073C388.139 278.073 388.503 278.099 388.894 278.151C389.311 278.177 389.714 278.229 390.105 278.307C390.496 278.385 390.86 278.49 391.199 278.62C391.563 278.724 391.863 278.854 392.097 279.01L390.73 295.104C389.558 294.661 388.321 294.336 387.019 294.128C385.717 293.893 384.584 293.776 383.621 293.776C382.292 293.776 381.121 293.945 380.105 294.284C379.115 294.596 378.269 295.013 377.566 295.534C376.863 296.055 376.303 296.628 375.886 297.253C375.496 297.878 375.222 298.49 375.066 299.089V321.276H358.191V279.128ZM413.113 300.26C413.113 302.161 413.334 303.815 413.777 305.221C414.246 306.628 414.897 307.799 415.73 308.737C416.563 309.648 417.566 310.339 418.738 310.807C419.91 311.25 421.225 311.471 422.683 311.471C424.558 311.471 426.329 311.224 427.996 310.729C429.662 310.208 431.368 309.505 433.113 308.62L435.613 318.776C434.467 319.375 433.23 319.909 431.902 320.378C430.574 320.82 429.207 321.185 427.8 321.471C426.394 321.784 424.962 322.018 423.503 322.174C422.071 322.331 420.665 322.409 419.285 322.409C416.134 322.409 413.165 321.966 410.378 321.081C407.592 320.195 405.144 318.841 403.035 317.018C400.951 315.195 399.298 312.891 398.074 310.104C396.85 307.318 396.238 304.023 396.238 300.221C396.238 296.419 396.85 293.125 398.074 290.339C399.298 287.552 400.951 285.247 403.035 283.424C405.144 281.602 407.592 280.247 410.378 279.362C413.165 278.477 416.134 278.034 419.285 278.034C420.665 278.034 422.071 278.112 423.503 278.268C424.962 278.424 426.394 278.659 427.8 278.971C429.207 279.258 430.574 279.635 431.902 280.104C433.23 280.547 434.467 281.068 435.613 281.667L433.113 291.823C431.368 290.938 429.662 290.247 427.996 289.753C426.329 289.232 424.558 288.971 422.683 288.971C421.225 288.971 419.91 289.206 418.738 289.674C417.566 290.117 416.563 290.807 415.73 291.745C414.897 292.682 414.246 293.867 413.777 295.299C413.334 296.706 413.113 298.359 413.113 300.26ZM446.628 261.276H463.503V284.909C464.233 283.893 465.17 282.969 466.316 282.135C467.462 281.302 468.725 280.586 470.105 279.987C471.485 279.362 472.944 278.893 474.48 278.581C476.016 278.242 477.553 278.073 479.089 278.073C480.99 278.073 482.774 278.385 484.441 279.01C486.134 279.609 487.605 280.586 488.855 281.94C490.105 283.294 491.082 285.039 491.785 287.174C492.514 289.284 492.878 291.836 492.878 294.831V321.276H476.003V299.01C476.003 297.057 475.834 295.43 475.496 294.128C475.183 292.826 474.766 291.784 474.246 291.003C473.725 290.195 473.126 289.635 472.449 289.323C471.798 288.984 471.134 288.815 470.457 288.815C469.675 288.815 468.894 288.971 468.113 289.284C467.358 289.57 466.654 289.987 466.003 290.534C465.378 291.081 464.845 291.732 464.402 292.487C463.959 293.242 463.66 294.076 463.503 294.987V321.276H446.628V261.276Z" fill="white"/>
</g>
<defs>
<clipPath id="clip0_102_61">
<rect width="678" height="678" fill="white"/>
</clipPath>
</defs>
</svg>
