<svg width="48" height="48" viewBox="0 0 48 48" fill="none" xmlns="http://www.w3.org/2000/svg">
<g clip-path="url(#clip0_102_208)">
<path d="M24 8C25.71 8 27.464 8.044 29.164 8.116L31.172 8.212L33.094 8.326L34.894 8.448L36.538 8.576C38.3221 8.71256 40.0009 9.47389 41.2791 10.7261C42.5572 11.9783 43.3529 13.6411 43.526 15.422L43.606 16.272L43.756 18.092C43.896 19.978 44 22.034 44 24C44 25.966 43.896 28.022 43.756 29.908L43.606 31.728C43.58 32.02 43.554 32.302 43.526 32.578C43.3528 34.3592 42.5569 36.0223 41.2783 37.2745C39.9997 38.5268 38.3205 39.2879 36.536 39.424L34.896 39.55L33.096 39.674L31.172 39.788L29.164 39.884C27.4437 39.9588 25.722 39.9974 24 40C22.278 39.9974 20.5563 39.9588 18.836 39.884L16.828 39.788L14.906 39.674L13.106 39.55L11.462 39.424C9.6779 39.2874 7.9991 38.5261 6.72095 37.2739C5.44279 36.0217 4.64715 34.3589 4.474 32.578L4.394 31.728L4.244 29.908C4.09108 27.9423 4.00969 25.9716 4 24C4 22.034 4.104 19.978 4.244 18.092L4.394 16.272C4.42 15.98 4.446 15.698 4.474 15.422C4.64708 13.6414 5.44243 11.9788 6.72018 10.7267C7.99793 9.47454 9.67626 8.71301 11.46 8.576L13.102 8.448L14.902 8.326L16.826 8.212L18.834 8.116C20.555 8.04127 22.2774 8.00259 24 8ZM24 12C22.35 12 20.652 12.044 19 12.112L17.044 12.206L15.166 12.316L13.402 12.436L11.786 12.562C10.9367 12.6223 10.1361 12.9813 9.52619 13.5755C8.91628 14.1696 8.53645 14.9605 8.454 15.808C8.22 18.226 8 21.236 8 24C8 26.764 8.22 29.774 8.454 32.192C8.624 33.936 10.008 35.292 11.786 35.438L13.402 35.562L15.166 35.682L17.044 35.794L19 35.888C20.652 35.956 22.35 36 24 36C25.65 36 27.348 35.956 29 35.888L30.956 35.794L32.834 35.684L34.598 35.564L36.214 35.438C37.0633 35.3777 37.8639 35.0187 38.4738 34.4245C39.0837 33.8304 39.4636 33.0395 39.546 32.192C39.78 29.774 40 26.764 40 24C40 21.236 39.78 18.226 39.546 15.808C39.4636 14.9605 39.0837 14.1696 38.4738 13.5755C37.8639 12.9813 37.0633 12.6223 36.214 12.562L34.598 12.438L32.834 12.318L30.956 12.206L29 12.112C27.3343 12.0403 25.6673 12.003 24 12ZM20 19.15C19.9999 18.9545 20.0475 18.762 20.1387 18.5891C20.23 18.4162 20.3621 18.2683 20.5235 18.1581C20.685 18.0479 20.8709 17.9788 21.0651 17.9568C21.2594 17.9348 21.456 17.9607 21.638 18.032L21.8 18.112L30.2 22.96C30.3673 23.0565 30.5088 23.192 30.6125 23.3549C30.7162 23.5178 30.7791 23.7033 30.7958 23.8957C30.8125 24.0881 30.7825 24.2817 30.7084 24.46C30.6342 24.6383 30.5182 24.7961 30.37 24.92L30.2 25.04L21.8 29.89C21.6307 29.988 21.4401 30.0432 21.2446 30.0507C21.0491 30.0582 20.8548 30.0177 20.6785 29.933C20.5022 29.8482 20.3494 29.7216 20.2332 29.5642C20.117 29.4068 20.0411 29.2234 20.012 29.03L20 28.85V19.15Z" fill="white"/>
</g>
<defs>
<clipPath id="clip0_102_208">
<rect width="48" height="48" fill="white"/>
</clipPath>
</defs>
</svg>
