<svg width="43" height="43" viewBox="0 0 43 43" fill="none" xmlns="http://www.w3.org/2000/svg">
<g clip-path="url(#clip0_102_74)">
<path fill-rule="evenodd" clip-rule="evenodd" d="M39.13 10.8504C39.2082 10.3761 39.1577 9.88962 38.9839 9.44152C38.8101 8.99343 38.5193 8.60013 38.1419 8.30262C37.7644 8.00511 37.3141 7.81427 36.8378 7.74998C36.3615 7.68569 35.8766 7.75031 35.4338 7.9371L4.79629 20.8371C2.66063 21.7365 2.55134 24.8253 4.79629 25.757C7.01925 26.6841 9.2746 27.5315 11.558 28.2976C13.6507 28.9892 15.9333 29.6288 17.7626 29.8098C18.2625 30.4082 18.8913 30.9833 19.5328 31.5118C20.5128 32.3181 21.6917 33.1476 22.91 33.9431C25.3503 35.5377 28.0575 37.0624 29.8814 38.055C32.0619 39.2375 34.6723 37.8758 35.0629 35.4983L39.13 10.8504ZM8.23092 23.2773L35.3281 11.8698L31.5333 34.8748C29.7435 33.9019 27.1653 32.4453 24.8683 30.9439C23.8097 30.2642 22.7876 29.5292 21.8064 28.7419C21.5441 28.5277 21.2895 28.3042 21.0431 28.0718L28.1399 20.9769C28.4761 20.6409 28.6651 20.1852 28.6652 19.7099C28.6654 19.2346 28.4768 18.7787 28.1408 18.4425C27.8049 18.1063 27.3491 17.9174 26.8738 17.9172C26.3986 17.917 25.9427 18.1057 25.6065 18.4416L17.836 26.2121C16.521 26.0437 14.6899 25.5563 12.6796 24.8934C11.183 24.3949 9.6984 23.856 8.23092 23.2773Z" fill="white"/>
</g>
<defs>
<clipPath id="clip0_102_74">
<rect width="43" height="43" fill="white"/>
</clipPath>
</defs>
</svg>
