<svg width="586" height="200" viewBox="0 0 586 200" fill="none" xmlns="http://www.w3.org/2000/svg">
<rect x="0.5" y="51.5" width="179" height="62" rx="9.5" stroke="#B7BABC"/>
<path d="M63.5585 88V77.5H65.5685L70.0385 84.91H68.9735L73.3685 77.5H75.3635L75.3935 88H73.1135L73.0985 80.995H73.5185L70.0085 86.89H68.9135L65.3285 80.995H65.8385V88H63.5585ZM82.6696 88V86.425L82.5196 86.08V83.26C82.5196 82.76 82.3646 82.37 82.0546 82.09C81.7546 81.81 81.2896 81.67 80.6596 81.67C80.2296 81.67 79.8046 81.74 79.3846 81.88C78.9746 82.01 78.6246 82.19 78.3346 82.42L77.4946 80.785C77.9346 80.475 78.4646 80.235 79.0846 80.065C79.7046 79.895 80.3346 79.81 80.9746 79.81C82.2046 79.81 83.1596 80.1 83.8396 80.68C84.5196 81.26 84.8596 82.165 84.8596 83.395V88H82.6696ZM80.2096 88.12C79.5796 88.12 79.0396 88.015 78.5896 87.805C78.1396 87.585 77.7946 87.29 77.5546 86.92C77.3146 86.55 77.1946 86.135 77.1946 85.675C77.1946 85.195 77.3096 84.775 77.5396 84.415C77.7796 84.055 78.1546 83.775 78.6646 83.575C79.1746 83.365 79.8396 83.26 80.6596 83.26H82.8046V84.625H80.9146C80.3646 84.625 79.9846 84.715 79.7746 84.895C79.5746 85.075 79.4746 85.3 79.4746 85.57C79.4746 85.87 79.5896 86.11 79.8196 86.29C80.0596 86.46 80.3846 86.545 80.7946 86.545C81.1846 86.545 81.5346 86.455 81.8446 86.275C82.1546 86.085 82.3796 85.81 82.5196 85.45L82.8796 86.53C82.7096 87.05 82.3996 87.445 81.9496 87.715C81.4996 87.985 80.9196 88.12 80.2096 88.12ZM86.9775 88V79.93H89.2125V82.21L88.8975 81.55C89.1375 80.98 89.5225 80.55 90.0525 80.26C90.5825 79.96 91.2275 79.81 91.9875 79.81V81.97C91.8875 81.96 91.7975 81.955 91.7175 81.955C91.6375 81.945 91.5525 81.94 91.4625 81.94C90.8225 81.94 90.3025 82.125 89.9025 82.495C89.5125 82.855 89.3175 83.42 89.3175 84.19V88H86.9775ZM95.3138 86.35L95.3738 83.5L99.1388 79.93H101.929L98.3138 83.605L97.0988 84.595L95.3138 86.35ZM93.3788 88V76.87H95.7188V88H93.3788ZM99.3938 88L96.6638 84.61L98.1338 82.795L102.229 88H99.3938ZM108.085 88V86.425L107.935 86.08V83.26C107.935 82.76 107.78 82.37 107.47 82.09C107.17 81.81 106.705 81.67 106.075 81.67C105.645 81.67 105.22 81.74 104.8 81.88C104.39 82.01 104.04 82.19 103.75 82.42L102.91 80.785C103.35 80.475 103.88 80.235 104.5 80.065C105.12 79.895 105.75 79.81 106.39 79.81C107.62 79.81 108.575 80.1 109.255 80.68C109.935 81.26 110.275 82.165 110.275 83.395V88H108.085ZM105.625 88.12C104.995 88.12 104.455 88.015 104.005 87.805C103.555 87.585 103.21 87.29 102.97 86.92C102.73 86.55 102.61 86.135 102.61 85.675C102.61 85.195 102.725 84.775 102.955 84.415C103.195 84.055 103.57 83.775 104.08 83.575C104.59 83.365 105.255 83.26 106.075 83.26H108.22V84.625H106.33C105.78 84.625 105.4 84.715 105.19 84.895C104.99 85.075 104.89 85.3 104.89 85.57C104.89 85.87 105.005 86.11 105.235 86.29C105.475 86.46 105.8 86.545 106.21 86.545C106.6 86.545 106.95 86.455 107.26 86.275C107.57 86.085 107.795 85.81 107.935 85.45L108.295 86.53C108.125 87.05 107.815 87.445 107.365 87.715C106.915 87.985 106.335 88.12 105.625 88.12ZM111.838 88V86.59L116.608 80.95L117.013 81.73H111.943V79.93H118.903V81.34L114.133 86.98L113.713 86.2H119.038V88H111.838ZM120.537 88V76.87H122.877V88H120.537ZM129.999 88V86.425L129.849 86.08V83.26C129.849 82.76 129.694 82.37 129.384 82.09C129.084 81.81 128.619 81.67 127.989 81.67C127.559 81.67 127.134 81.74 126.714 81.88C126.304 82.01 125.954 82.19 125.664 82.42L124.824 80.785C125.264 80.475 125.794 80.235 126.414 80.065C127.034 79.895 127.664 79.81 128.304 79.81C129.534 79.81 130.489 80.1 131.169 80.68C131.849 81.26 132.189 82.165 132.189 83.395V88H129.999ZM127.539 88.12C126.909 88.12 126.369 88.015 125.919 87.805C125.469 87.585 125.124 87.29 124.884 86.92C124.644 86.55 124.524 86.135 124.524 85.675C124.524 85.195 124.639 84.775 124.869 84.415C125.109 84.055 125.484 83.775 125.994 83.575C126.504 83.365 127.169 83.26 127.989 83.26H130.134V84.625H128.244C127.694 84.625 127.314 84.715 127.104 84.895C126.904 85.075 126.804 85.3 126.804 85.57C126.804 85.87 126.919 86.11 127.149 86.29C127.389 86.46 127.714 86.545 128.124 86.545C128.514 86.545 128.864 86.455 129.174 86.275C129.484 86.085 129.709 85.81 129.849 85.45L130.209 86.53C130.039 87.05 129.729 87.445 129.279 87.715C128.829 87.985 128.249 88.12 127.539 88.12ZM134.307 88V79.93H136.542V82.21L136.227 81.55C136.467 80.98 136.852 80.55 137.382 80.26C137.912 79.96 138.557 79.81 139.317 79.81V81.97C139.217 81.96 139.127 81.955 139.047 81.955C138.967 81.945 138.882 81.94 138.792 81.94C138.152 81.94 137.632 82.125 137.232 82.495C136.842 82.855 136.647 83.42 136.647 84.19V88H134.307Z" fill="#6D7F8A"/>
<path d="M28 77.1667V88.1667C28 88.5704 28.2427 88.9345 28.6154 89.0897L38 93M28 77.1667L37.2308 73.3205C37.7231 73.1154 38.2769 73.1154 38.7692 73.3205L43 75.0833M28 77.1667L33 79.25M38 81.3333V93M38 81.3333L48 77.1667M38 81.3333L33 79.25M38 93L47.3846 89.0897C47.7573 88.9345 48 88.5704 48 88.1667V77.1667M48 77.1667L43 75.0833M33 79.25L43 75.0833" stroke="#6D7F8A" stroke-width="1.5" stroke-linejoin="round"/>
<circle cx="175" cy="50" r="14" fill="#3499D5"/>
<path d="M170.842 54V46.32L171.682 47.16H169.162V45.6H172.786V54H170.842ZM177.845 54.144C177.157 54.144 176.541 53.976 175.997 53.64C175.453 53.296 175.025 52.8 174.713 52.152C174.401 51.504 174.245 50.72 174.245 49.8C174.245 48.88 174.401 48.096 174.713 47.448C175.025 46.8 175.453 46.308 175.997 45.972C176.541 45.628 177.157 45.456 177.845 45.456C178.541 45.456 179.157 45.628 179.693 45.972C180.237 46.308 180.665 46.8 180.977 47.448C181.289 48.096 181.445 48.88 181.445 49.8C181.445 50.72 181.289 51.504 180.977 52.152C180.665 52.8 180.237 53.296 179.693 53.64C179.157 53.976 178.541 54.144 177.845 54.144ZM177.845 52.5C178.173 52.5 178.457 52.408 178.697 52.224C178.945 52.04 179.137 51.748 179.273 51.348C179.417 50.948 179.489 50.432 179.489 49.8C179.489 49.168 179.417 48.652 179.273 48.252C179.137 47.852 178.945 47.56 178.697 47.376C178.457 47.192 178.173 47.1 177.845 47.1C177.525 47.1 177.241 47.192 176.993 47.376C176.753 47.56 176.561 47.852 176.417 48.252C176.281 48.652 176.213 49.168 176.213 49.8C176.213 50.432 176.281 50.948 176.417 51.348C176.561 51.748 176.753 52.04 176.993 52.224C177.241 52.408 177.525 52.5 177.845 52.5Z" fill="white"/>
<rect x="202.5" y="50.5" width="179" height="62" rx="9.5" stroke="#B7BABC"/>
<path d="M269.388 86.18C268.558 86.18 267.788 86.045 267.078 85.775C266.378 85.505 265.768 85.125 265.248 84.635C264.738 84.145 264.338 83.57 264.048 82.91C263.768 82.25 263.628 81.53 263.628 80.75C263.628 79.97 263.768 79.25 264.048 78.59C264.338 77.93 264.743 77.355 265.263 76.865C265.783 76.375 266.393 75.995 267.093 75.725C267.793 75.455 268.553 75.32 269.373 75.32C270.203 75.32 270.963 75.455 271.653 75.725C272.353 75.995 272.958 76.375 273.468 76.865C273.988 77.355 274.393 77.93 274.683 78.59C274.973 79.24 275.118 79.96 275.118 80.75C275.118 81.53 274.973 82.255 274.683 82.925C274.393 83.585 273.988 84.16 273.468 84.65C272.958 85.13 272.353 85.505 271.653 85.775C270.963 86.045 270.208 86.18 269.388 86.18ZM269.373 84.11C269.843 84.11 270.273 84.03 270.663 83.87C271.063 83.71 271.413 83.48 271.713 83.18C272.013 82.88 272.243 82.525 272.403 82.115C272.573 81.705 272.658 81.25 272.658 80.75C272.658 80.25 272.573 79.795 272.403 79.385C272.243 78.975 272.013 78.62 271.713 78.32C271.423 78.02 271.078 77.79 270.678 77.63C270.278 77.47 269.843 77.39 269.373 77.39C268.903 77.39 268.468 77.47 268.068 77.63C267.678 77.79 267.333 78.02 267.033 78.32C266.733 78.62 266.498 78.975 266.328 79.385C266.168 79.795 266.088 80.25 266.088 80.75C266.088 81.24 266.168 81.695 266.328 82.115C266.498 82.525 266.728 82.88 267.018 83.18C267.318 83.48 267.668 83.71 268.068 83.87C268.468 84.03 268.903 84.11 269.373 84.11ZM281.549 86.12C280.839 86.12 280.229 85.97 279.719 85.67C279.209 85.37 278.819 84.915 278.549 84.305C278.279 83.685 278.144 82.905 278.144 81.965C278.144 81.015 278.284 80.235 278.564 79.625C278.854 79.015 279.254 78.56 279.764 78.26C280.274 77.96 280.869 77.81 281.549 77.81C282.309 77.81 282.989 77.98 283.589 78.32C284.199 78.66 284.679 79.14 285.029 79.76C285.389 80.38 285.569 81.115 285.569 81.965C285.569 82.805 285.389 83.535 285.029 84.155C284.679 84.775 284.199 85.26 283.589 85.61C282.989 85.95 282.309 86.12 281.549 86.12ZM276.779 86V74.87H279.119V79.565L278.969 81.95L279.014 84.35V86H276.779ZM281.144 84.2C281.534 84.2 281.879 84.11 282.179 83.93C282.489 83.75 282.734 83.495 282.914 83.165C283.104 82.825 283.199 82.425 283.199 81.965C283.199 81.495 283.104 81.095 282.914 80.765C282.734 80.435 282.489 80.18 282.179 80C281.879 79.82 281.534 79.73 281.144 79.73C280.754 79.73 280.404 79.82 280.094 80C279.784 80.18 279.539 80.435 279.359 80.765C279.179 81.095 279.089 81.495 279.089 81.965C279.089 82.425 279.179 82.825 279.359 83.165C279.539 83.495 279.784 83.75 280.094 83.93C280.404 84.11 280.754 84.2 281.144 84.2ZM290.541 86.12C289.871 86.12 289.271 85.99 288.741 85.73C288.221 85.47 287.816 85.075 287.526 84.545C287.236 84.005 287.091 83.32 287.091 82.49V77.93H289.431V82.145C289.431 82.815 289.571 83.31 289.851 83.63C290.141 83.94 290.546 84.095 291.066 84.095C291.426 84.095 291.746 84.02 292.026 83.87C292.306 83.71 292.526 83.47 292.686 83.15C292.846 82.82 292.926 82.41 292.926 81.92V77.93H295.266V86H293.046V83.78L293.451 84.425C293.181 84.985 292.781 85.41 292.251 85.7C291.731 85.98 291.161 86.12 290.541 86.12ZM302.339 77.81C302.979 77.81 303.549 77.94 304.049 78.2C304.559 78.45 304.959 78.84 305.249 79.37C305.539 79.89 305.684 80.56 305.684 81.38V86H303.344V81.74C303.344 81.09 303.199 80.61 302.909 80.3C302.629 79.99 302.229 79.835 301.709 79.835C301.339 79.835 301.004 79.915 300.704 80.075C300.414 80.225 300.184 80.46 300.014 80.78C299.854 81.1 299.774 81.51 299.774 82.01V86H297.434V77.93H299.669V80.165L299.249 79.49C299.539 78.95 299.954 78.535 300.494 78.245C301.034 77.955 301.649 77.81 302.339 77.81ZM312.755 86V84.425L312.605 84.08V81.26C312.605 80.76 312.45 80.37 312.14 80.09C311.84 79.81 311.375 79.67 310.745 79.67C310.315 79.67 309.89 79.74 309.47 79.88C309.06 80.01 308.71 80.19 308.42 80.42L307.58 78.785C308.02 78.475 308.55 78.235 309.17 78.065C309.79 77.895 310.42 77.81 311.06 77.81C312.29 77.81 313.245 78.1 313.925 78.68C314.605 79.26 314.945 80.165 314.945 81.395V86H312.755ZM310.295 86.12C309.665 86.12 309.125 86.015 308.675 85.805C308.225 85.585 307.88 85.29 307.64 84.92C307.4 84.55 307.28 84.135 307.28 83.675C307.28 83.195 307.395 82.775 307.625 82.415C307.865 82.055 308.24 81.775 308.75 81.575C309.26 81.365 309.925 81.26 310.745 81.26H312.89V82.625H311C310.45 82.625 310.07 82.715 309.86 82.895C309.66 83.075 309.56 83.3 309.56 83.57C309.56 83.87 309.675 84.11 309.905 84.29C310.145 84.46 310.47 84.545 310.88 84.545C311.27 84.545 311.62 84.455 311.93 84.275C312.24 84.085 312.465 83.81 312.605 83.45L312.965 84.53C312.795 85.05 312.485 85.445 312.035 85.715C311.585 85.985 311.005 86.12 310.295 86.12ZM321.021 86.12C320.151 86.12 319.376 85.945 318.696 85.595C318.016 85.235 317.481 84.74 317.091 84.11C316.711 83.48 316.521 82.765 316.521 81.965C316.521 81.155 316.711 80.44 317.091 79.82C317.481 79.19 318.016 78.7 318.696 78.35C319.376 77.99 320.151 77.81 321.021 77.81C321.871 77.81 322.611 77.99 323.241 78.35C323.871 78.7 324.336 79.205 324.636 79.865L322.821 80.84C322.611 80.46 322.346 80.18 322.026 80C321.716 79.82 321.376 79.73 321.006 79.73C320.606 79.73 320.246 79.82 319.926 80C319.606 80.18 319.351 80.435 319.161 80.765C318.981 81.095 318.891 81.495 318.891 81.965C318.891 82.435 318.981 82.835 319.161 83.165C319.351 83.495 319.606 83.75 319.926 83.93C320.246 84.11 320.606 84.2 321.006 84.2C321.376 84.2 321.716 84.115 322.026 83.945C322.346 83.765 322.611 83.48 322.821 83.09L324.636 84.08C324.336 84.73 323.871 85.235 323.241 85.595C322.611 85.945 321.871 86.12 321.021 86.12ZM330.83 77.81C331.47 77.81 332.04 77.94 332.54 78.2C333.05 78.45 333.45 78.84 333.74 79.37C334.03 79.89 334.175 80.56 334.175 81.38V86H331.835V81.74C331.835 81.09 331.69 80.61 331.4 80.3C331.12 79.99 330.72 79.835 330.2 79.835C329.83 79.835 329.495 79.915 329.195 80.075C328.905 80.225 328.675 80.46 328.505 80.78C328.345 81.1 328.265 81.51 328.265 82.01V86H325.925V74.87H328.265V80.165L327.74 79.49C328.03 78.95 328.445 78.535 328.985 78.245C329.525 77.955 330.14 77.81 330.83 77.81ZM336.296 86V77.93H338.636V86H336.296ZM337.466 76.805C337.036 76.805 336.686 76.68 336.416 76.43C336.146 76.18 336.011 75.87 336.011 75.5C336.011 75.13 336.146 74.82 336.416 74.57C336.686 74.32 337.036 74.195 337.466 74.195C337.896 74.195 338.246 74.315 338.516 74.555C338.786 74.785 338.921 75.085 338.921 75.455C338.921 75.845 338.786 76.17 338.516 76.43C338.256 76.68 337.906 76.805 337.466 76.805ZM340.808 86V74.87H343.148V86H340.808ZM350.269 86V84.425L350.119 84.08V81.26C350.119 80.76 349.964 80.37 349.654 80.09C349.354 79.81 348.889 79.67 348.259 79.67C347.829 79.67 347.404 79.74 346.984 79.88C346.574 80.01 346.224 80.19 345.934 80.42L345.094 78.785C345.534 78.475 346.064 78.235 346.684 78.065C347.304 77.895 347.934 77.81 348.574 77.81C349.804 77.81 350.759 78.1 351.439 78.68C352.119 79.26 352.459 80.165 352.459 81.395V86H350.269ZM347.809 86.12C347.179 86.12 346.639 86.015 346.189 85.805C345.739 85.585 345.394 85.29 345.154 84.92C344.914 84.55 344.794 84.135 344.794 83.675C344.794 83.195 344.909 82.775 345.139 82.415C345.379 82.055 345.754 81.775 346.264 81.575C346.774 81.365 347.439 81.26 348.259 81.26H350.404V82.625H348.514C347.964 82.625 347.584 82.715 347.374 82.895C347.174 83.075 347.074 83.3 347.074 83.57C347.074 83.87 347.189 84.11 347.419 84.29C347.659 84.46 347.984 84.545 348.394 84.545C348.784 84.545 349.134 84.455 349.444 84.275C349.754 84.085 349.979 83.81 350.119 83.45L350.479 84.53C350.309 85.05 349.999 85.445 349.549 85.715C349.099 85.985 348.519 86.12 347.809 86.12ZM354.577 86V77.93H356.812V80.21L356.497 79.55C356.737 78.98 357.122 78.55 357.652 78.26C358.182 77.96 358.827 77.81 359.587 77.81V79.97C359.487 79.96 359.397 79.955 359.317 79.955C359.237 79.945 359.152 79.94 359.062 79.94C358.422 79.94 357.902 80.125 357.502 80.495C357.112 80.855 356.917 81.42 356.917 82.19V86H354.577Z" fill="#6D7F8A"/>
<circle cx="3.40426" cy="3.40426" r="3.40426" transform="matrix(-1 0 0 1 243.617 73.9999)" stroke="#6D7F8A" stroke-width="1.5"/>
<path d="M234.255 85.8594C234.255 85.1271 234.716 84.474 235.405 84.2277V84.2277C238.514 83.1174 241.911 83.1174 245.02 84.2277V84.2277C245.71 84.474 246.17 85.1271 246.17 85.8594V86.9789C246.17 87.9895 245.275 88.7658 244.275 88.6229L243.941 88.5753C241.468 88.222 238.957 88.222 236.484 88.5753L236.151 88.6229C235.15 88.7658 234.255 87.9895 234.255 86.9789V85.8594Z" stroke="#6D7F8A" stroke-width="1.5"/>
<path d="M245.319 80.9027C246.796 80.9027 247.994 79.7051 247.994 78.2279C247.994 76.7507 246.796 75.5531 245.319 75.5531" stroke="#6D7F8A" stroke-width="1.5" stroke-linecap="round"/>
<path d="M248.249 87.005L248.511 87.0424C249.297 87.1547 250 86.5448 250 85.7507V84.8711C250 84.2958 249.638 83.7825 249.097 83.589C248.556 83.396 248.005 83.2457 247.447 83.1381" stroke="#6D7F8A" stroke-width="1.5" stroke-linecap="round"/>
<path d="M234.681 80.9027C233.204 80.9027 232.006 79.7051 232.006 78.2279C232.006 76.7507 233.204 75.5531 234.681 75.5531" stroke="#6D7F8A" stroke-width="1.5" stroke-linecap="round"/>
<path d="M231.751 87.005L231.489 87.0424C230.703 87.1547 230 86.5448 230 85.7507V84.8711C230 84.2958 230.362 83.7825 230.903 83.589C231.444 83.396 231.995 83.2457 232.553 83.1381" stroke="#6D7F8A" stroke-width="1.5" stroke-linecap="round"/>
<circle cx="374" cy="50" r="14" fill="#3499D5"/>
<path d="M367.123 54V46.32L367.963 47.16H365.443V45.6H369.067V54H367.123ZM371.823 54V46.32L372.663 47.16H370.143V45.6H373.767V54H371.823ZM377.494 52.08L377.386 49.836L381.406 45.6H383.566L379.942 49.5L378.862 50.652L377.494 52.08ZM375.754 54V45.6H377.686V54H375.754ZM381.502 54L378.514 50.34L379.786 48.96L383.77 54H381.502Z" fill="white"/>
<rect x="401.5" y="50.5" width="179" height="62" rx="9.5" stroke="#B7BABC"/>
<path d="M473.821 79.73H478.876V81.62H473.821V79.73ZM474.001 84.05H479.716V86H471.586V75.5H479.521V77.45H474.001V84.05ZM483.602 86L480.212 77.93H482.627L485.447 84.875H484.247L487.172 77.93H489.422L486.017 86H483.602ZM494.162 86.12C493.242 86.12 492.432 85.94 491.732 85.58C491.042 85.22 490.507 84.73 490.127 84.11C489.747 83.48 489.557 82.765 489.557 81.965C489.557 81.155 489.742 80.44 490.112 79.82C490.492 79.19 491.007 78.7 491.657 78.35C492.307 77.99 493.042 77.81 493.862 77.81C494.652 77.81 495.362 77.98 495.992 78.32C496.632 78.65 497.137 79.13 497.507 79.76C497.877 80.38 498.062 81.125 498.062 81.995C498.062 82.085 498.057 82.19 498.047 82.31C498.037 82.42 498.027 82.525 498.017 82.625H491.462V81.26H496.787L495.887 81.665C495.887 81.245 495.802 80.88 495.632 80.57C495.462 80.26 495.227 80.02 494.927 79.85C494.627 79.67 494.277 79.58 493.877 79.58C493.477 79.58 493.122 79.67 492.812 79.85C492.512 80.02 492.277 80.265 492.107 80.585C491.937 80.895 491.852 81.265 491.852 81.695V82.055C491.852 82.495 491.947 82.885 492.137 83.225C492.337 83.555 492.612 83.81 492.962 83.99C493.322 84.16 493.742 84.245 494.222 84.245C494.652 84.245 495.027 84.18 495.347 84.05C495.677 83.92 495.977 83.725 496.247 83.465L497.492 84.815C497.122 85.235 496.657 85.56 496.097 85.79C495.537 86.01 494.892 86.12 494.162 86.12ZM504.525 77.81C505.165 77.81 505.735 77.94 506.235 78.2C506.745 78.45 507.145 78.84 507.435 79.37C507.725 79.89 507.87 80.56 507.87 81.38V86H505.53V81.74C505.53 81.09 505.385 80.61 505.095 80.3C504.815 79.99 504.415 79.835 503.895 79.835C503.525 79.835 503.19 79.915 502.89 80.075C502.6 80.225 502.37 80.46 502.2 80.78C502.04 81.1 501.96 81.51 501.96 82.01V86H499.62V77.93H501.855V80.165L501.435 79.49C501.725 78.95 502.14 78.535 502.68 78.245C503.22 77.955 503.835 77.81 504.525 77.81ZM513.291 86.12C512.341 86.12 511.601 85.88 511.071 85.4C510.541 84.91 510.276 84.185 510.276 83.225V76.145H512.616V83.195C512.616 83.535 512.706 83.8 512.886 83.99C513.066 84.17 513.311 84.26 513.621 84.26C513.991 84.26 514.306 84.16 514.566 83.96L515.196 85.61C514.956 85.78 514.666 85.91 514.326 86C513.996 86.08 513.651 86.12 513.291 86.12ZM509.031 79.91V78.11H514.626V79.91H509.031ZM516.509 86V74.87H518.849V86H516.509ZM525.971 86V84.425L525.821 84.08V81.26C525.821 80.76 525.666 80.37 525.356 80.09C525.056 79.81 524.591 79.67 523.961 79.67C523.531 79.67 523.106 79.74 522.686 79.88C522.276 80.01 521.926 80.19 521.636 80.42L520.796 78.785C521.236 78.475 521.766 78.235 522.386 78.065C523.006 77.895 523.636 77.81 524.276 77.81C525.506 77.81 526.461 78.1 527.141 78.68C527.821 79.26 528.161 80.165 528.161 81.395V86H525.971ZM523.511 86.12C522.881 86.12 522.341 86.015 521.891 85.805C521.441 85.585 521.096 85.29 520.856 84.92C520.616 84.55 520.496 84.135 520.496 83.675C520.496 83.195 520.611 82.775 520.841 82.415C521.081 82.055 521.456 81.775 521.966 81.575C522.476 81.365 523.141 81.26 523.961 81.26H526.106V82.625H524.216C523.666 82.625 523.286 82.715 523.076 82.895C522.876 83.075 522.776 83.3 522.776 83.57C522.776 83.87 522.891 84.11 523.121 84.29C523.361 84.46 523.686 84.545 524.096 84.545C524.486 84.545 524.836 84.455 525.146 84.275C525.456 84.085 525.681 83.81 525.821 83.45L526.181 84.53C526.011 85.05 525.701 85.445 525.251 85.715C524.801 85.985 524.221 86.12 523.511 86.12ZM530.279 86V77.93H532.514V80.21L532.199 79.55C532.439 78.98 532.824 78.55 533.354 78.26C533.884 77.96 534.529 77.81 535.289 77.81V79.97C535.189 79.96 535.099 79.955 535.019 79.955C534.939 79.945 534.854 79.94 534.764 79.94C534.124 79.94 533.604 80.125 533.204 80.495C532.814 80.855 532.619 81.42 532.619 82.19V86H530.279Z" fill="#6D7F8A"/>
<path d="M446 75.3706C446 73.6583 443.988 72.7377 442.693 73.8571L439.363 76.7332C439 77.047 438.536 77.2197 438.056 77.2197L436.5 77.2197C435.119 77.2197 434 78.339 434 79.7197V83.0127C434 84.3934 435.119 85.5127 436.5 85.5127H438.056C438.536 85.5127 439 85.6854 439.363 85.9992L442.693 88.8753C443.988 89.9947 446 89.0741 446 87.3618V81.3662V75.3706Z" stroke="#6D7F8A" stroke-width="1.5"/>
<path d="M449 84.3667C449.628 83.531 450 82.4923 450 81.3667C450 80.2411 449.628 79.2024 449 78.3667" stroke="#6D7F8A" stroke-width="1.5" stroke-linecap="round"/>
<circle cx="572" cy="50" r="14" fill="#FFC700"/>
<path d="M567.683 54.144C567.099 54.144 566.519 54.068 565.943 53.916C565.375 53.756 564.887 53.532 564.479 53.244L565.247 51.756C565.567 51.988 565.935 52.172 566.351 52.308C566.775 52.444 567.203 52.512 567.635 52.512C568.123 52.512 568.507 52.416 568.787 52.224C569.067 52.032 569.207 51.764 569.207 51.42C569.207 51.204 569.151 51.012 569.039 50.844C568.927 50.676 568.727 50.548 568.439 50.46C568.159 50.372 567.763 50.328 567.251 50.328H565.103L565.535 45.6H570.659V47.16H566.231L567.239 46.272L566.939 49.644L565.931 48.756H567.707C568.539 48.756 569.207 48.872 569.711 49.104C570.223 49.328 570.595 49.636 570.827 50.028C571.059 50.42 571.175 50.864 571.175 51.36C571.175 51.856 571.051 52.316 570.803 52.74C570.555 53.156 570.171 53.496 569.651 53.76C569.139 54.016 568.483 54.144 567.683 54.144ZM575.564 54.144C574.876 54.144 574.26 53.976 573.716 53.64C573.172 53.296 572.744 52.8 572.432 52.152C572.12 51.504 571.964 50.72 571.964 49.8C571.964 48.88 572.12 48.096 572.432 47.448C572.744 46.8 573.172 46.308 573.716 45.972C574.26 45.628 574.876 45.456 575.564 45.456C576.26 45.456 576.876 45.628 577.412 45.972C577.956 46.308 578.384 46.8 578.696 47.448C579.008 48.096 579.164 48.88 579.164 49.8C579.164 50.72 579.008 51.504 578.696 52.152C578.384 52.8 577.956 53.296 577.412 53.64C576.876 53.976 576.26 54.144 575.564 54.144ZM575.564 52.5C575.892 52.5 576.176 52.408 576.416 52.224C576.664 52.04 576.856 51.748 576.992 51.348C577.136 50.948 577.208 50.432 577.208 49.8C577.208 49.168 577.136 48.652 576.992 48.252C576.856 47.852 576.664 47.56 576.416 47.376C576.176 47.192 575.892 47.1 575.564 47.1C575.244 47.1 574.96 47.192 574.712 47.376C574.472 47.56 574.28 47.852 574.136 48.252C574 48.652 573.932 49.168 573.932 49.8C573.932 50.432 574 50.948 574.136 51.348C574.28 51.748 574.472 52.04 574.712 52.224C574.96 52.408 575.244 52.5 575.564 52.5Z" fill="white"/>
</svg>
