<svg width="259" height="231" viewBox="0 0 259 231" fill="none" xmlns="http://www.w3.org/2000/svg">
<g filter="url(#filter0_d_21_61)">
<rect x="50" y="50" width="159" height="131" rx="30" fill="white"/>
</g>
<rect x="61" y="60" width="139" height="64" rx="20" fill="url(#paint0_linear_21_61)"/>
<path d="M120.92 83.5V86.125L114.42 101H110.02L116.295 86.8H110.495V89.65H106.895V83.5H120.92ZM134.283 91.8C135.15 92.2333 135.808 92.8 136.258 93.5C136.725 94.2 136.958 95.0083 136.958 95.925C136.958 97.0083 136.65 97.9583 136.033 98.775C135.416 99.575 134.55 100.2 133.433 100.65C132.316 101.083 131.025 101.3 129.558 101.3C128.091 101.3 126.8 101.083 125.683 100.65C124.583 100.2 123.725 99.575 123.108 98.775C122.508 97.9583 122.208 97.0083 122.208 95.925C122.208 95.0083 122.433 94.2 122.883 93.5C123.35 92.8 124.008 92.2333 124.858 91.8C124.208 91.4 123.708 90.9 123.358 90.3C123.008 89.6833 122.833 88.9833 122.833 88.2C122.833 87.1833 123.116 86.3 123.683 85.55C124.25 84.8 125.041 84.225 126.058 83.825C127.075 83.4083 128.241 83.2 129.558 83.2C130.891 83.2 132.066 83.4083 133.083 83.825C134.116 84.225 134.916 84.8 135.483 85.55C136.05 86.3 136.333 87.1833 136.333 88.2C136.333 88.9833 136.158 89.6833 135.808 90.3C135.458 90.9 134.95 91.4 134.283 91.8ZM129.558 86.175C128.741 86.175 128.083 86.375 127.583 86.775C127.1 87.1583 126.858 87.6917 126.858 88.375C126.858 89.0417 127.1 89.5667 127.583 89.95C128.066 90.3333 128.725 90.525 129.558 90.525C130.391 90.525 131.058 90.3333 131.558 89.95C132.058 89.5667 132.308 89.0417 132.308 88.375C132.308 87.6917 132.058 87.1583 131.558 86.775C131.058 86.375 130.391 86.175 129.558 86.175ZM129.558 98.325C130.575 98.325 131.375 98.1 131.958 97.65C132.558 97.1833 132.858 96.5667 132.858 95.8C132.858 95.0333 132.558 94.425 131.958 93.975C131.375 93.525 130.575 93.3 129.558 93.3C128.558 93.3 127.766 93.525 127.183 93.975C126.6 94.425 126.308 95.0333 126.308 95.8C126.308 96.5833 126.6 97.2 127.183 97.65C127.766 98.1 128.558 98.325 129.558 98.325ZM147.237 90.025C148.354 90.025 149.37 90.25 150.287 90.7C151.204 91.15 151.929 91.7917 152.462 92.625C152.995 93.4417 153.262 94.3917 153.262 95.475C153.262 96.6417 152.97 97.6667 152.387 98.55C151.804 99.4333 151.004 100.117 149.987 100.6C148.987 101.067 147.87 101.3 146.637 101.3C144.187 101.3 142.27 100.55 140.887 99.05C139.504 97.55 138.812 95.4083 138.812 92.625C138.812 90.6417 139.187 88.9417 139.937 87.525C140.687 86.1083 141.729 85.0333 143.062 84.3C144.412 83.5667 145.97 83.2 147.737 83.2C148.67 83.2 149.562 83.3083 150.412 83.525C151.279 83.725 152.012 84.0167 152.612 84.4L151.112 87.375C150.245 86.7917 149.154 86.5 147.837 86.5C146.354 86.5 145.179 86.9333 144.312 87.8C143.445 88.6667 142.979 89.925 142.912 91.575C143.945 90.5417 145.387 90.025 147.237 90.025ZM146.412 98.275C147.279 98.275 147.979 98.0417 148.512 97.575C149.062 97.1083 149.337 96.475 149.337 95.675C149.337 94.875 149.062 94.2417 148.512 93.775C147.979 93.2917 147.262 93.05 146.362 93.05C145.479 93.05 144.754 93.3 144.187 93.8C143.62 94.2833 143.337 94.9083 143.337 95.675C143.337 96.4417 143.612 97.0667 144.162 97.55C144.712 98.0333 145.462 98.275 146.412 98.275Z" fill="white"/>
<path d="M76.9549 145.3H83.6749V147.9H76.9549V145.3ZM77.1949 153H73.9549V139H84.5349V141.6H77.1949V153ZM86.313 153V142.24H89.293V145.28L88.873 144.4C89.193 143.64 89.7064 143.067 90.413 142.68C91.1197 142.28 91.9797 142.08 92.993 142.08V144.96C92.8597 144.947 92.7397 144.94 92.633 144.94C92.5264 144.927 92.413 144.92 92.293 144.92C91.4397 144.92 90.7464 145.167 90.213 145.66C89.693 146.14 89.433 146.893 89.433 147.92V153H86.313ZM100.091 153.16C98.8639 153.16 97.7839 152.92 96.8505 152.44C95.9305 151.96 95.2172 151.307 94.7105 150.48C94.2039 149.64 93.9505 148.687 93.9505 147.62C93.9505 146.54 94.1972 145.587 94.6905 144.76C95.1972 143.92 95.8839 143.267 96.7505 142.8C97.6172 142.32 98.5972 142.08 99.6905 142.08C100.744 142.08 101.691 142.307 102.531 142.76C103.384 143.2 104.057 143.84 104.551 144.68C105.044 145.507 105.291 146.5 105.291 147.66C105.291 147.78 105.284 147.92 105.271 148.08C105.257 148.227 105.244 148.367 105.231 148.5H96.4905V146.68H103.591L102.391 147.22C102.391 146.66 102.277 146.173 102.051 145.76C101.824 145.347 101.511 145.027 101.111 144.8C100.711 144.56 100.244 144.44 99.7105 144.44C99.1772 144.44 98.7039 144.56 98.2905 144.8C97.8905 145.027 97.5772 145.353 97.3505 145.78C97.1239 146.193 97.0105 146.687 97.0105 147.26V147.74C97.0105 148.327 97.1372 148.847 97.3905 149.3C97.6572 149.74 98.0239 150.08 98.4905 150.32C98.9705 150.547 99.5305 150.66 100.171 150.66C100.744 150.66 101.244 150.573 101.671 150.4C102.111 150.227 102.511 149.967 102.871 149.62L104.531 151.42C104.037 151.98 103.417 152.413 102.671 152.72C101.924 153.013 101.064 153.16 100.091 153.16ZM112.708 153.16C111.481 153.16 110.401 152.92 109.468 152.44C108.548 151.96 107.834 151.307 107.328 150.48C106.821 149.64 106.568 148.687 106.568 147.62C106.568 146.54 106.814 145.587 107.308 144.76C107.814 143.92 108.501 143.267 109.368 142.8C110.234 142.32 111.214 142.08 112.308 142.08C113.361 142.08 114.308 142.307 115.148 142.76C116.001 143.2 116.674 143.84 117.168 144.68C117.661 145.507 117.908 146.5 117.908 147.66C117.908 147.78 117.901 147.92 117.888 148.08C117.874 148.227 117.861 148.367 117.848 148.5H109.108V146.68H116.208L115.008 147.22C115.008 146.66 114.894 146.173 114.668 145.76C114.441 145.347 114.128 145.027 113.728 144.8C113.328 144.56 112.861 144.44 112.328 144.44C111.794 144.44 111.321 144.56 110.908 144.8C110.508 145.027 110.194 145.353 109.968 145.78C109.741 146.193 109.628 146.687 109.628 147.26V147.74C109.628 148.327 109.754 148.847 110.008 149.3C110.274 149.74 110.641 150.08 111.108 150.32C111.588 150.547 112.148 150.66 112.788 150.66C113.361 150.66 113.861 150.573 114.288 150.4C114.728 150.227 115.128 149.967 115.488 149.62L117.148 151.42C116.654 151.98 116.034 152.413 115.288 152.72C114.541 153.013 113.681 153.16 112.708 153.16ZM132.009 153.16C131.062 153.16 130.249 152.96 129.569 152.56C128.889 152.16 128.369 151.553 128.009 150.74C127.649 149.913 127.469 148.873 127.469 147.62C127.469 146.353 127.656 145.313 128.029 144.5C128.416 143.687 128.949 143.08 129.629 142.68C130.309 142.28 131.102 142.08 132.009 142.08C133.022 142.08 133.929 142.307 134.729 142.76C135.542 143.213 136.182 143.853 136.649 144.68C137.129 145.507 137.369 146.487 137.369 147.62C137.369 148.74 137.129 149.713 136.649 150.54C136.182 151.367 135.542 152.013 134.729 152.48C133.929 152.933 133.022 153.16 132.009 153.16ZM125.649 153V138.16H128.769V144.42L128.569 147.6L128.629 150.8V153H125.649ZM131.469 150.6C131.989 150.6 132.449 150.48 132.849 150.24C133.262 150 133.589 149.66 133.829 149.22C134.082 148.767 134.209 148.233 134.209 147.62C134.209 146.993 134.082 146.46 133.829 146.02C133.589 145.58 133.262 145.24 132.849 145C132.449 144.76 131.989 144.64 131.469 144.64C130.949 144.64 130.482 144.76 130.069 145C129.656 145.24 129.329 145.58 129.089 146.02C128.849 146.46 128.729 146.993 128.729 147.62C128.729 148.233 128.849 148.767 129.089 149.22C129.329 149.66 129.656 150 130.069 150.24C130.482 150.48 130.949 150.6 131.469 150.6ZM144.578 153.16C143.431 153.16 142.411 152.92 141.518 152.44C140.638 151.96 139.938 151.307 139.418 150.48C138.911 149.64 138.658 148.687 138.658 147.62C138.658 146.54 138.911 145.587 139.418 144.76C139.938 143.92 140.638 143.267 141.518 142.8C142.411 142.32 143.431 142.08 144.578 142.08C145.711 142.08 146.724 142.32 147.618 142.8C148.511 143.267 149.211 143.913 149.718 144.74C150.224 145.567 150.478 146.527 150.478 147.62C150.478 148.687 150.224 149.64 149.718 150.48C149.211 151.307 148.511 151.96 147.618 152.44C146.724 152.92 145.711 153.16 144.578 153.16ZM144.578 150.6C145.098 150.6 145.564 150.48 145.978 150.24C146.391 150 146.718 149.66 146.958 149.22C147.198 148.767 147.318 148.233 147.318 147.62C147.318 146.993 147.198 146.46 146.958 146.02C146.718 145.58 146.391 145.24 145.978 145C145.564 144.76 145.098 144.64 144.578 144.64C144.058 144.64 143.591 144.76 143.178 145C142.764 145.24 142.431 145.58 142.178 146.02C141.938 146.46 141.818 146.993 141.818 147.62C141.818 148.233 141.938 148.767 142.178 149.22C142.431 149.66 142.764 150 143.178 150.24C143.591 150.48 144.058 150.6 144.578 150.6ZM157.683 153.16C156.536 153.16 155.516 152.92 154.623 152.44C153.743 151.96 153.043 151.307 152.523 150.48C152.016 149.64 151.763 148.687 151.763 147.62C151.763 146.54 152.016 145.587 152.523 144.76C153.043 143.92 153.743 143.267 154.623 142.8C155.516 142.32 156.536 142.08 157.683 142.08C158.816 142.08 159.83 142.32 160.723 142.8C161.616 143.267 162.316 143.913 162.823 144.74C163.33 145.567 163.583 146.527 163.583 147.62C163.583 148.687 163.33 149.64 162.823 150.48C162.316 151.307 161.616 151.96 160.723 152.44C159.83 152.92 158.816 153.16 157.683 153.16ZM157.683 150.6C158.203 150.6 158.67 150.48 159.083 150.24C159.496 150 159.823 149.66 160.063 149.22C160.303 148.767 160.423 148.233 160.423 147.62C160.423 146.993 160.303 146.46 160.063 146.02C159.823 145.58 159.496 145.24 159.083 145C158.67 144.76 158.203 144.64 157.683 144.64C157.163 144.64 156.696 144.76 156.283 145C155.87 145.24 155.536 145.58 155.283 146.02C155.043 146.46 154.923 146.993 154.923 147.62C154.923 148.233 155.043 148.767 155.283 149.22C155.536 149.66 155.87 150 156.283 150.24C156.696 150.48 157.163 150.6 157.683 150.6ZM168.249 150.8L168.329 147L173.349 142.24H177.069L172.249 147.14L170.629 148.46L168.249 150.8ZM165.669 153V138.16H168.789V153H165.669ZM173.689 153L170.049 148.48L172.009 146.06L177.469 153H173.689ZM182.14 153.16C181.22 153.16 180.333 153.053 179.48 152.84C178.64 152.613 177.973 152.333 177.48 152L178.52 149.76C179.013 150.067 179.593 150.32 180.26 150.52C180.94 150.707 181.607 150.8 182.26 150.8C182.98 150.8 183.487 150.713 183.78 150.54C184.087 150.367 184.24 150.127 184.24 149.82C184.24 149.567 184.12 149.38 183.88 149.26C183.653 149.127 183.347 149.027 182.96 148.96C182.573 148.893 182.147 148.827 181.68 148.76C181.227 148.693 180.767 148.607 180.3 148.5C179.833 148.38 179.407 148.207 179.02 147.98C178.633 147.753 178.32 147.447 178.08 147.06C177.853 146.673 177.74 146.173 177.74 145.56C177.74 144.88 177.933 144.28 178.32 143.76C178.72 143.24 179.293 142.833 180.04 142.54C180.787 142.233 181.68 142.08 182.72 142.08C183.453 142.08 184.2 142.16 184.96 142.32C185.72 142.48 186.353 142.713 186.86 143.02L185.82 145.24C185.3 144.933 184.773 144.727 184.24 144.62C183.72 144.5 183.213 144.44 182.72 144.44C182.027 144.44 181.52 144.533 181.2 144.72C180.88 144.907 180.72 145.147 180.72 145.44C180.72 145.707 180.833 145.907 181.06 146.04C181.3 146.173 181.613 146.28 182 146.36C182.387 146.44 182.807 146.513 183.26 146.58C183.727 146.633 184.193 146.72 184.66 146.84C185.127 146.96 185.547 147.133 185.92 147.36C186.307 147.573 186.62 147.873 186.86 148.26C187.1 148.633 187.22 149.127 187.22 149.74C187.22 150.407 187.02 151 186.62 151.52C186.22 152.027 185.64 152.427 184.88 152.72C184.133 153.013 183.22 153.16 182.14 153.16Z" fill="#2B3F6C"/>
<defs>
<filter id="filter0_d_21_61" x="0" y="0" width="259" height="231" filterUnits="userSpaceOnUse" color-interpolation-filters="sRGB">
<feFlood flood-opacity="0" result="BackgroundImageFix"/>
<feColorMatrix in="SourceAlpha" type="matrix" values="0 0 0 0 0 0 0 0 0 0 0 0 0 0 0 0 0 0 127 0" result="hardAlpha"/>
<feOffset/>
<feGaussianBlur stdDeviation="25"/>
<feComposite in2="hardAlpha" operator="out"/>
<feColorMatrix type="matrix" values="0 0 0 0 0.203922 0 0 0 0 0.6 0 0 0 0 0.835294 0 0 0 0.2 0"/>
<feBlend mode="normal" in2="BackgroundImageFix" result="effect1_dropShadow_21_61"/>
<feBlend mode="normal" in="SourceGraphic" in2="effect1_dropShadow_21_61" result="shape"/>
</filter>
<linearGradient id="paint0_linear_21_61" x1="130.5" y1="60" x2="130.5" y2="124" gradientUnits="userSpaceOnUse">
<stop stop-color="#FFC700"/>
<stop offset="1" stop-color="#FFDA56"/>
</linearGradient>
</defs>
</svg>
