<svg width="394" height="444" viewBox="0 0 394 444" fill="none" xmlns="http://www.w3.org/2000/svg">
<g filter="url(#filter0_f_27_113)">
<path d="M60 60H334V344C334 366.091 316.091 384 294 384H100C77.9086 384 60 366.091 60 344V60Z" fill="#3499D5" fill-opacity="0.4"/>
</g>
<g filter="url(#filter1_d_27_113)">
<path d="M60 60H334V344C334 366.091 316.091 384 294 384H100C77.9086 384 60 366.091 60 344V60Z" fill="url(#paint0_linear_27_113)"/>
<path d="M60.5 60.5H333.5V344C333.5 365.815 315.815 383.5 294 383.5H100C78.1848 383.5 60.5 365.815 60.5 344V60.5Z" stroke="#78B9E0"/>
</g>
<rect x="84" y="143" width="223" height="138" rx="20" fill="white"/>
<path d="M129.421 323.46H139.531V327.24H129.421V323.46ZM129.781 332.1H141.211V336H124.951V315H140.821V318.9H129.781V332.1ZM151.561 336.24C150.041 336.24 148.671 335.9 147.451 335.22C146.231 334.52 145.261 333.55 144.541 332.31C143.841 331.07 143.491 329.61 143.491 327.93C143.491 326.23 143.841 324.76 144.541 323.52C145.261 322.28 146.231 321.32 147.451 320.64C148.671 319.96 150.041 319.62 151.561 319.62C152.921 319.62 154.111 319.92 155.131 320.52C156.151 321.12 156.941 322.03 157.501 323.25C158.061 324.47 158.341 326.03 158.341 327.93C158.341 329.81 158.071 331.37 157.531 332.61C156.991 333.83 156.211 334.74 155.191 335.34C154.191 335.94 152.981 336.24 151.561 336.24ZM152.371 332.4C153.131 332.4 153.821 332.22 154.441 331.86C155.061 331.5 155.551 330.99 155.911 330.33C156.291 329.65 156.481 328.85 156.481 327.93C156.481 326.99 156.291 326.19 155.911 325.53C155.551 324.87 155.061 324.36 154.441 324C153.821 323.64 153.131 323.46 152.371 323.46C151.591 323.46 150.891 323.64 150.271 324C149.651 324.36 149.151 324.87 148.771 325.53C148.411 326.19 148.231 326.99 148.231 327.93C148.231 328.85 148.411 329.65 148.771 330.33C149.151 330.99 149.651 331.5 150.271 331.86C150.891 332.22 151.591 332.4 152.371 332.4ZM156.601 336V332.7L156.691 327.9L156.391 323.13V313.74H161.071V336H156.601ZM172.212 336.24C170.872 336.24 169.672 335.98 168.612 335.46C167.572 334.94 166.762 334.15 166.182 333.09C165.602 332.01 165.312 330.64 165.312 328.98V319.86H169.992V328.29C169.992 329.63 170.272 330.62 170.832 331.26C171.412 331.88 172.222 332.19 173.262 332.19C173.982 332.19 174.622 332.04 175.182 331.74C175.742 331.42 176.182 330.94 176.502 330.3C176.822 329.64 176.982 328.82 176.982 327.84V319.86H181.662V336H177.222V331.56L178.032 332.85C177.492 333.97 176.692 334.82 175.632 335.4C174.592 335.96 173.452 336.24 172.212 336.24ZM193.798 336.24C192.058 336.24 190.508 335.89 189.148 335.19C187.788 334.47 186.718 333.48 185.938 332.22C185.178 330.96 184.798 329.53 184.798 327.93C184.798 326.31 185.178 324.88 185.938 323.64C186.718 322.38 187.788 321.4 189.148 320.7C190.508 319.98 192.058 319.62 193.798 319.62C195.498 319.62 196.978 319.98 198.238 320.7C199.498 321.4 200.428 322.41 201.028 323.73L197.398 325.68C196.978 324.92 196.448 324.36 195.808 324C195.188 323.64 194.508 323.46 193.768 323.46C192.968 323.46 192.248 323.64 191.608 324C190.968 324.36 190.458 324.87 190.078 325.53C189.718 326.19 189.538 326.99 189.538 327.93C189.538 328.87 189.718 329.67 190.078 330.33C190.458 330.99 190.968 331.5 191.608 331.86C192.248 332.22 192.968 332.4 193.768 332.4C194.508 332.4 195.188 332.23 195.808 331.89C196.448 331.53 196.978 330.96 197.398 330.18L201.028 332.16C200.428 333.46 199.498 334.47 198.238 335.19C196.978 335.89 195.498 336.24 193.798 336.24ZM213.623 336V332.85L213.323 332.16V326.52C213.323 325.52 213.013 324.74 212.393 324.18C211.793 323.62 210.863 323.34 209.603 323.34C208.743 323.34 207.893 323.48 207.053 323.76C206.233 324.02 205.533 324.38 204.953 324.84L203.273 321.57C204.153 320.95 205.213 320.47 206.453 320.13C207.693 319.79 208.953 319.62 210.233 319.62C212.693 319.62 214.603 320.2 215.963 321.36C217.323 322.52 218.003 324.33 218.003 326.79V336H213.623ZM208.703 336.24C207.443 336.24 206.363 336.03 205.463 335.61C204.563 335.17 203.873 334.58 203.393 333.84C202.913 333.1 202.673 332.27 202.673 331.35C202.673 330.39 202.903 329.55 203.363 328.83C203.843 328.11 204.593 327.55 205.613 327.15C206.633 326.73 207.963 326.52 209.603 326.52H213.893V329.25H210.113C209.013 329.25 208.253 329.43 207.833 329.79C207.433 330.15 207.233 330.6 207.233 331.14C207.233 331.74 207.463 332.22 207.923 332.58C208.403 332.92 209.053 333.09 209.873 333.09C210.653 333.09 211.353 332.91 211.973 332.55C212.593 332.17 213.043 331.62 213.323 330.9L214.043 333.06C213.703 334.1 213.083 334.89 212.183 335.43C211.283 335.97 210.123 336.24 208.703 336.24ZM228.838 336.24C226.938 336.24 225.458 335.76 224.398 334.8C223.338 333.82 222.808 332.37 222.808 330.45V316.29H227.488V330.39C227.488 331.07 227.668 331.6 228.028 331.98C228.388 332.34 228.878 332.52 229.498 332.52C230.238 332.52 230.868 332.32 231.388 331.92L232.648 335.22C232.168 335.56 231.588 335.82 230.908 336C230.248 336.16 229.558 336.24 228.838 336.24ZM220.318 323.82V320.22H231.508V323.82H220.318ZM235.275 336V319.86H239.955V336H235.275ZM237.615 317.61C236.755 317.61 236.055 317.36 235.515 316.86C234.975 316.36 234.705 315.74 234.705 315C234.705 314.26 234.975 313.64 235.515 313.14C236.055 312.64 236.755 312.39 237.615 312.39C238.475 312.39 239.175 312.63 239.715 313.11C240.255 313.57 240.525 314.17 240.525 314.91C240.525 315.69 240.255 316.34 239.715 316.86C239.195 317.36 238.495 317.61 237.615 317.61ZM251.979 336.24C250.259 336.24 248.729 335.88 247.389 335.16C246.069 334.44 245.019 333.46 244.239 332.22C243.479 330.96 243.099 329.53 243.099 327.93C243.099 326.31 243.479 324.88 244.239 323.64C245.019 322.38 246.069 321.4 247.389 320.7C248.729 319.98 250.259 319.62 251.979 319.62C253.679 319.62 255.199 319.98 256.539 320.7C257.879 321.4 258.929 322.37 259.689 323.61C260.449 324.85 260.829 326.29 260.829 327.93C260.829 329.53 260.449 330.96 259.689 332.22C258.929 333.46 257.879 334.44 256.539 335.16C255.199 335.88 253.679 336.24 251.979 336.24ZM251.979 332.4C252.759 332.4 253.459 332.22 254.079 331.86C254.699 331.5 255.189 330.99 255.549 330.33C255.909 329.65 256.089 328.85 256.089 327.93C256.089 326.99 255.909 326.19 255.549 325.53C255.189 324.87 254.699 324.36 254.079 324C253.459 323.64 252.759 323.46 251.979 323.46C251.199 323.46 250.499 323.64 249.879 324C249.259 324.36 248.759 324.87 248.379 325.53C248.019 326.19 247.839 326.99 247.839 327.93C247.839 328.85 248.019 329.65 248.379 330.33C248.759 330.99 249.259 331.5 249.879 331.86C250.499 332.22 251.199 332.4 251.979 332.4ZM273.767 319.62C275.047 319.62 276.187 319.88 277.187 320.4C278.207 320.9 279.007 321.68 279.587 322.74C280.167 323.78 280.457 325.12 280.457 326.76V336H275.777V327.48C275.777 326.18 275.487 325.22 274.907 324.6C274.347 323.98 273.547 323.67 272.507 323.67C271.767 323.67 271.097 323.83 270.497 324.15C269.917 324.45 269.457 324.92 269.117 325.56C268.797 326.2 268.637 327.02 268.637 328.02V336H263.957V319.86H268.427V324.33L267.587 322.98C268.167 321.9 268.997 321.07 270.077 320.49C271.157 319.91 272.387 319.62 273.767 319.62Z" fill="white"/>
<path d="M135.797 226V221.8L146.597 211.6C147.45 210.827 148.077 210.133 148.477 209.52C148.877 208.907 149.143 208.347 149.277 207.84C149.437 207.333 149.517 206.867 149.517 206.44C149.517 205.32 149.13 204.467 148.357 203.88C147.61 203.267 146.503 202.96 145.037 202.96C143.863 202.96 142.77 203.187 141.757 203.64C140.77 204.093 139.93 204.8 139.237 205.76L134.517 202.72C135.583 201.12 137.077 199.853 138.997 198.92C140.917 197.987 143.13 197.52 145.637 197.52C147.717 197.52 149.53 197.867 151.077 198.56C152.65 199.227 153.863 200.173 154.717 201.4C155.597 202.627 156.037 204.093 156.037 205.8C156.037 206.707 155.917 207.613 155.677 208.52C155.463 209.4 155.01 210.333 154.317 211.32C153.65 212.307 152.663 213.413 151.357 214.64L142.397 223.08L141.157 220.72H156.957V226H135.797ZM169.15 226.48C167.204 226.48 165.27 226.227 163.35 225.72C161.457 225.187 159.83 224.44 158.47 223.48L161.03 218.52C162.097 219.293 163.324 219.907 164.71 220.36C166.124 220.813 167.55 221.04 168.99 221.04C170.617 221.04 171.897 220.72 172.83 220.08C173.764 219.44 174.23 218.547 174.23 217.4C174.23 216.68 174.044 216.04 173.67 215.48C173.297 214.92 172.63 214.493 171.67 214.2C170.737 213.907 169.417 213.76 167.71 213.76H160.55L161.99 198H179.07V203.2H164.31L167.67 200.24L166.67 211.48L163.31 208.52H169.23C172.004 208.52 174.23 208.907 175.91 209.68C177.617 210.427 178.857 211.453 179.63 212.76C180.404 214.067 180.79 215.547 180.79 217.2C180.79 218.853 180.377 220.387 179.55 221.8C178.724 223.187 177.444 224.32 175.71 225.2C174.004 226.053 171.817 226.48 169.15 226.48ZM187.739 226V200.4L190.539 203.2H182.139V198H194.219V226H187.739Z" fill="#399DD9"/>
<circle cx="252" cy="212" r="31" fill="url(#paint1_linear_27_113)"/>
<path d="M234.028 229V222H235.648V229H234.028ZM244.089 223.54C244.516 223.54 244.893 223.627 245.219 223.8C245.553 223.967 245.813 224.227 245.999 224.58C246.193 224.927 246.289 225.373 246.289 225.92V229H244.729V226.16C244.729 225.727 244.639 225.407 244.459 225.2C244.279 224.993 244.026 224.89 243.699 224.89C243.473 224.89 243.269 224.943 243.089 225.05C242.909 225.15 242.769 225.303 242.669 225.51C242.569 225.717 242.519 225.98 242.519 226.3V229H240.959V226.16C240.959 225.727 240.869 225.407 240.689 225.2C240.516 224.993 240.266 224.89 239.939 224.89C239.713 224.89 239.509 224.943 239.329 225.05C239.149 225.15 239.009 225.303 238.909 225.51C238.809 225.717 238.759 225.98 238.759 226.3V229H237.199V223.62H238.689V225.09L238.409 224.66C238.596 224.293 238.859 224.017 239.199 223.83C239.546 223.637 239.939 223.54 240.379 223.54C240.873 223.54 241.303 223.667 241.669 223.92C242.043 224.167 242.289 224.547 242.409 225.06L241.859 224.91C242.039 224.49 242.326 224.157 242.719 223.91C243.119 223.663 243.576 223.54 244.089 223.54ZM250.988 229V227.95L250.888 227.72V225.84C250.888 225.507 250.784 225.247 250.578 225.06C250.378 224.873 250.068 224.78 249.648 224.78C249.361 224.78 249.078 224.827 248.798 224.92C248.524 225.007 248.291 225.127 248.098 225.28L247.538 224.19C247.831 223.983 248.184 223.823 248.598 223.71C249.011 223.597 249.431 223.54 249.858 223.54C250.678 223.54 251.314 223.733 251.768 224.12C252.221 224.507 252.448 225.11 252.448 225.93V229H250.988ZM249.348 229.08C248.928 229.08 248.568 229.01 248.268 228.87C247.968 228.723 247.738 228.527 247.578 228.28C247.418 228.033 247.338 227.757 247.338 227.45C247.338 227.13 247.414 226.85 247.568 226.61C247.728 226.37 247.978 226.183 248.318 226.05C248.658 225.91 249.101 225.84 249.648 225.84H251.078V226.75H249.818C249.451 226.75 249.198 226.81 249.058 226.93C248.924 227.05 248.858 227.2 248.858 227.38C248.858 227.58 248.934 227.74 249.088 227.86C249.248 227.973 249.464 228.03 249.738 228.03C249.998 228.03 250.231 227.97 250.438 227.85C250.644 227.723 250.794 227.54 250.888 227.3L251.128 228.02C251.014 228.367 250.808 228.63 250.508 228.81C250.208 228.99 249.821 229.08 249.348 229.08ZM256.429 231.02C255.922 231.02 255.432 230.957 254.959 230.83C254.492 230.71 254.102 230.527 253.789 230.28L254.409 229.16C254.635 229.347 254.922 229.493 255.269 229.6C255.622 229.713 255.969 229.77 256.309 229.77C256.862 229.77 257.262 229.647 257.509 229.4C257.762 229.153 257.889 228.787 257.889 228.3V227.49L257.989 226.14L257.969 224.78V223.62H259.449V228.1C259.449 229.1 259.189 229.837 258.669 230.31C258.149 230.783 257.402 231.02 256.429 231.02ZM256.189 228.74C255.689 228.74 255.235 228.633 254.829 228.42C254.429 228.2 254.105 227.897 253.859 227.51C253.619 227.117 253.499 226.66 253.499 226.14C253.499 225.613 253.619 225.157 253.859 224.77C254.105 224.377 254.429 224.073 254.829 223.86C255.235 223.647 255.689 223.54 256.189 223.54C256.642 223.54 257.042 223.633 257.389 223.82C257.735 224 258.005 224.283 258.199 224.67C258.392 225.05 258.489 225.54 258.489 226.14C258.489 226.733 258.392 227.223 258.199 227.61C258.005 227.99 257.735 228.273 257.389 228.46C257.042 228.647 256.642 228.74 256.189 228.74ZM256.499 227.46C256.772 227.46 257.015 227.407 257.229 227.3C257.442 227.187 257.609 227.03 257.729 226.83C257.849 226.63 257.909 226.4 257.909 226.14C257.909 225.873 257.849 225.643 257.729 225.45C257.609 225.25 257.442 225.097 257.229 224.99C257.015 224.877 256.772 224.82 256.499 224.82C256.225 224.82 255.982 224.877 255.769 224.99C255.555 225.097 255.385 225.25 255.259 225.45C255.139 225.643 255.079 225.873 255.079 226.14C255.079 226.4 255.139 226.63 255.259 226.83C255.385 227.03 255.555 227.187 255.769 227.3C255.982 227.407 256.225 227.46 256.499 227.46ZM263.571 229.08C262.957 229.08 262.417 228.96 261.951 228.72C261.491 228.48 261.134 228.153 260.881 227.74C260.627 227.32 260.501 226.843 260.501 226.31C260.501 225.77 260.624 225.293 260.871 224.88C261.124 224.46 261.467 224.133 261.901 223.9C262.334 223.66 262.824 223.54 263.371 223.54C263.897 223.54 264.371 223.653 264.791 223.88C265.217 224.1 265.554 224.42 265.801 224.84C266.047 225.253 266.171 225.75 266.171 226.33C266.171 226.39 266.167 226.46 266.161 226.54C266.154 226.613 266.147 226.683 266.141 226.75H261.771V225.84H265.321L264.721 226.11C264.721 225.83 264.664 225.587 264.551 225.38C264.437 225.173 264.281 225.013 264.081 224.9C263.881 224.78 263.647 224.72 263.381 224.72C263.114 224.72 262.877 224.78 262.671 224.9C262.471 225.013 262.314 225.177 262.201 225.39C262.087 225.597 262.031 225.843 262.031 226.13V226.37C262.031 226.663 262.094 226.923 262.221 227.15C262.354 227.37 262.537 227.54 262.771 227.66C263.011 227.773 263.291 227.83 263.611 227.83C263.897 227.83 264.147 227.787 264.361 227.7C264.581 227.613 264.781 227.483 264.961 227.31L265.791 228.21C265.544 228.49 265.234 228.707 264.861 228.86C264.487 229.007 264.057 229.08 263.571 229.08ZM269.019 229.08C268.559 229.08 268.116 229.027 267.689 228.92C267.269 228.807 266.936 228.667 266.689 228.5L267.209 227.38C267.456 227.533 267.746 227.66 268.079 227.76C268.419 227.853 268.753 227.9 269.079 227.9C269.439 227.9 269.693 227.857 269.839 227.77C269.993 227.683 270.069 227.563 270.069 227.41C270.069 227.283 270.009 227.19 269.889 227.13C269.776 227.063 269.623 227.013 269.429 226.98C269.236 226.947 269.023 226.913 268.789 226.88C268.563 226.847 268.333 226.803 268.099 226.75C267.866 226.69 267.653 226.603 267.459 226.49C267.266 226.377 267.109 226.223 266.989 226.03C266.876 225.837 266.819 225.587 266.819 225.28C266.819 224.94 266.916 224.64 267.109 224.38C267.309 224.12 267.596 223.917 267.969 223.77C268.343 223.617 268.789 223.54 269.309 223.54C269.676 223.54 270.049 223.58 270.429 223.66C270.809 223.74 271.126 223.857 271.379 224.01L270.859 225.12C270.599 224.967 270.336 224.863 270.069 224.81C269.809 224.75 269.556 224.72 269.309 224.72C268.963 224.72 268.709 224.767 268.549 224.86C268.389 224.953 268.309 225.073 268.309 225.22C268.309 225.353 268.366 225.453 268.479 225.52C268.599 225.587 268.756 225.64 268.949 225.68C269.143 225.72 269.353 225.757 269.579 225.79C269.813 225.817 270.046 225.86 270.279 225.92C270.513 225.98 270.723 226.067 270.909 226.18C271.103 226.287 271.259 226.437 271.379 226.63C271.499 226.817 271.559 227.063 271.559 227.37C271.559 227.703 271.459 228 271.259 228.26C271.059 228.513 270.769 228.713 270.389 228.86C270.016 229.007 269.559 229.08 269.019 229.08Z" fill="white"/>
<path d="M243.64 214.24C242.667 214.24 241.7 214.113 240.74 213.86C239.78 213.593 238.967 213.22 238.3 212.74L239.56 210.26C240.094 210.647 240.714 210.953 241.42 211.18C242.127 211.407 242.84 211.52 243.56 211.52C244.374 211.52 245.014 211.36 245.48 211.04C245.947 210.72 246.18 210.28 246.18 209.72C246.18 209.187 245.974 208.767 245.56 208.46C245.147 208.153 244.48 208 243.56 208H242.08V205.86L245.98 201.44L246.34 202.6H239V200H248.8V202.1L244.92 206.52L243.28 205.58H244.22C245.94 205.58 247.24 205.967 248.12 206.74C249 207.513 249.44 208.507 249.44 209.72C249.44 210.507 249.234 211.247 248.82 211.94C248.407 212.62 247.774 213.173 246.92 213.6C246.067 214.027 244.974 214.24 243.64 214.24ZM251.816 214V200H258.176C259.696 200 261.036 200.293 262.196 200.88C263.356 201.453 264.263 202.26 264.916 203.3C265.57 204.34 265.896 205.573 265.896 207C265.896 208.413 265.57 209.647 264.916 210.7C264.263 211.74 263.356 212.553 262.196 213.14C261.036 213.713 259.696 214 258.176 214H251.816ZM255.056 211.34H258.016C258.95 211.34 259.756 211.167 260.436 210.82C261.13 210.46 261.663 209.953 262.036 209.3C262.423 208.647 262.616 207.88 262.616 207C262.616 206.107 262.423 205.34 262.036 204.7C261.663 204.047 261.13 203.547 260.436 203.2C259.756 202.84 258.95 202.66 258.016 202.66H255.056V211.34Z" fill="white"/>
<defs>
<filter id="filter0_f_27_113" x="0" y="0" width="394" height="444" filterUnits="userSpaceOnUse" color-interpolation-filters="sRGB">
<feFlood flood-opacity="0" result="BackgroundImageFix"/>
<feBlend mode="normal" in="SourceGraphic" in2="BackgroundImageFix" result="shape"/>
<feGaussianBlur stdDeviation="30" result="effect1_foregroundBlur_27_113"/>
</filter>
<filter id="filter1_d_27_113" x="56" y="60" width="282" height="332" filterUnits="userSpaceOnUse" color-interpolation-filters="sRGB">
<feFlood flood-opacity="0" result="BackgroundImageFix"/>
<feColorMatrix in="SourceAlpha" type="matrix" values="0 0 0 0 0 0 0 0 0 0 0 0 0 0 0 0 0 0 127 0" result="hardAlpha"/>
<feOffset dy="4"/>
<feGaussianBlur stdDeviation="2"/>
<feComposite in2="hardAlpha" operator="out"/>
<feColorMatrix type="matrix" values="0 0 0 0 0 0 0 0 0 0 0 0 0 0 0 0 0 0 0.25 0"/>
<feBlend mode="normal" in2="BackgroundImageFix" result="effect1_dropShadow_27_113"/>
<feBlend mode="normal" in="SourceGraphic" in2="effect1_dropShadow_27_113" result="shape"/>
</filter>
<linearGradient id="paint0_linear_27_113" x1="197" y1="60" x2="197" y2="384" gradientUnits="userSpaceOnUse">
<stop stop-color="#3499D5"/>
<stop offset="1" stop-color="#65C6FF"/>
</linearGradient>
<linearGradient id="paint1_linear_27_113" x1="252" y1="181" x2="252" y2="243" gradientUnits="userSpaceOnUse">
<stop stop-color="#369AD6"/>
<stop offset="1" stop-color="#63C4FE"/>
</linearGradient>
</defs>
</svg>
