<svg width="223" height="232" viewBox="0 0 223 232" fill="none" xmlns="http://www.w3.org/2000/svg">
<rect x="0.5" y="0.5" width="222" height="137" rx="19.5" stroke="url(#paint0_linear_27_114)"/>
<path d="M76.2713 181.45H86.3513V185.35H76.2713V181.45ZM76.6313 193H71.7713V172H87.6413V175.9H76.6313V193ZM100.062 193V189.85L99.762 189.16V183.52C99.762 182.52 99.452 181.74 98.832 181.18C98.232 180.62 97.302 180.34 96.042 180.34C95.182 180.34 94.332 180.48 93.492 180.76C92.672 181.02 91.972 181.38 91.392 181.84L89.712 178.57C90.592 177.95 91.652 177.47 92.892 177.13C94.132 176.79 95.392 176.62 96.672 176.62C99.132 176.62 101.042 177.2 102.402 178.36C103.762 179.52 104.442 181.33 104.442 183.79V193H100.062ZM95.142 193.24C93.882 193.24 92.802 193.03 91.902 192.61C91.002 192.17 90.312 191.58 89.832 190.84C89.352 190.1 89.112 189.27 89.112 188.35C89.112 187.39 89.342 186.55 89.802 185.83C90.282 185.11 91.032 184.55 92.052 184.15C93.072 183.73 94.402 183.52 96.042 183.52H100.332V186.25H96.552C95.452 186.25 94.692 186.43 94.272 186.79C93.872 187.15 93.672 187.6 93.672 188.14C93.672 188.74 93.902 189.22 94.362 189.58C94.842 189.92 95.492 190.09 96.312 190.09C97.092 190.09 97.792 189.91 98.412 189.55C99.032 189.17 99.482 188.62 99.762 187.9L100.482 190.06C100.142 191.1 99.522 191.89 98.622 192.43C97.722 192.97 96.562 193.24 95.142 193.24ZM118.488 176.62C119.768 176.62 120.908 176.88 121.908 177.4C122.928 177.9 123.728 178.68 124.308 179.74C124.888 180.78 125.178 182.12 125.178 183.76V193H120.498V184.48C120.498 183.18 120.208 182.22 119.628 181.6C119.068 180.98 118.268 180.67 117.228 180.67C116.488 180.67 115.818 180.83 115.218 181.15C114.638 181.45 114.178 181.92 113.838 182.56C113.518 183.2 113.358 184.02 113.358 185.02V193H108.678V176.86H113.148V181.33L112.308 179.98C112.888 178.9 113.718 178.07 114.798 177.49C115.878 176.91 117.108 176.62 118.488 176.62ZM129.42 193V170.74H134.1V193H129.42ZM148.343 193V189.85L148.043 189.16V183.52C148.043 182.52 147.733 181.74 147.113 181.18C146.513 180.62 145.583 180.34 144.323 180.34C143.463 180.34 142.613 180.48 141.773 180.76C140.953 181.02 140.253 181.38 139.673 181.84L137.993 178.57C138.873 177.95 139.933 177.47 141.173 177.13C142.413 176.79 143.673 176.62 144.953 176.62C147.413 176.62 149.323 177.2 150.683 178.36C152.043 179.52 152.723 181.33 152.723 183.79V193H148.343ZM143.423 193.24C142.163 193.24 141.083 193.03 140.183 192.61C139.283 192.17 138.593 191.58 138.113 190.84C137.633 190.1 137.393 189.27 137.393 188.35C137.393 187.39 137.623 186.55 138.083 185.83C138.563 185.11 139.313 184.55 140.333 184.15C141.353 183.73 142.683 183.52 144.323 183.52H148.613V186.25H144.833C143.733 186.25 142.973 186.43 142.553 186.79C142.153 187.15 141.953 187.6 141.953 188.14C141.953 188.74 142.183 189.22 142.643 189.58C143.123 189.92 143.773 190.09 144.593 190.09C145.373 190.09 146.073 189.91 146.693 189.55C147.313 189.17 147.763 188.62 148.043 187.9L148.763 190.06C148.423 191.1 147.803 191.89 146.903 192.43C146.003 192.97 144.843 193.24 143.423 193.24ZM156.959 193V176.86H161.429V181.42L160.799 180.1C161.279 178.96 162.049 178.1 163.109 177.52C164.169 176.92 165.459 176.62 166.979 176.62V180.94C166.779 180.92 166.599 180.91 166.439 180.91C166.279 180.89 166.109 180.88 165.929 180.88C164.649 180.88 163.609 181.25 162.809 181.99C162.029 182.71 161.639 183.84 161.639 185.38V193H156.959Z" fill="white"/>
<path d="M51.7966 83V78.8L62.5966 68.6C63.4499 67.8267 64.0766 67.1333 64.4766 66.52C64.8766 65.9067 65.1432 65.3467 65.2766 64.84C65.4366 64.3333 65.5166 63.8667 65.5166 63.44C65.5166 62.32 65.1299 61.4667 64.3566 60.88C63.6099 60.2667 62.5032 59.96 61.0366 59.96C59.8632 59.96 58.7699 60.1867 57.7566 60.64C56.7699 61.0933 55.9299 61.8 55.2366 62.76L50.5166 59.72C51.5832 58.12 53.0766 56.8533 54.9966 55.92C56.9166 54.9867 59.1299 54.52 61.6366 54.52C63.7166 54.52 65.5299 54.8667 67.0766 55.56C68.6499 56.2267 69.8632 57.1733 70.7166 58.4C71.5966 59.6267 72.0366 61.0933 72.0366 62.8C72.0366 63.7067 71.9166 64.6133 71.6766 65.52C71.4632 66.4 71.0099 67.3333 70.3166 68.32C69.6499 69.3067 68.6632 70.4133 67.3566 71.64L58.3966 80.08L57.1566 77.72H72.9566V83H51.7966ZM85.1503 83.48C83.2036 83.48 81.2703 83.2267 79.3503 82.72C77.457 82.1867 75.8303 81.44 74.4703 80.48L77.0303 75.52C78.097 76.2933 79.3236 76.9067 80.7103 77.36C82.1236 77.8133 83.5503 78.04 84.9903 78.04C86.617 78.04 87.897 77.72 88.8303 77.08C89.7636 76.44 90.2303 75.5467 90.2303 74.4C90.2303 73.68 90.0436 73.04 89.6703 72.48C89.297 71.92 88.6303 71.4933 87.6703 71.2C86.737 70.9067 85.417 70.76 83.7103 70.76H76.5503L77.9903 55H95.0703V60.2H80.3103L83.6703 57.24L82.6703 68.48L79.3103 65.52H85.2303C88.0036 65.52 90.2303 65.9067 91.9103 66.68C93.617 67.4267 94.857 68.4533 95.6303 69.76C96.4036 71.0667 96.7903 72.5467 96.7903 74.2C96.7903 75.8533 96.377 77.3867 95.5503 78.8C94.7236 80.1867 93.4436 81.32 91.7103 82.2C90.0036 83.0533 87.817 83.48 85.1503 83.48ZM103.739 83V57.4L106.539 60.2H98.1394V55H110.219V83H103.739Z" fill="#6885C8"/>
<circle cx="164" cy="69" r="31" fill="url(#paint1_linear_27_114)"/>
<path d="M146.028 86V79H147.648V86H146.028ZM156.089 80.54C156.516 80.54 156.893 80.6267 157.219 80.8C157.553 80.9667 157.813 81.2267 157.999 81.58C158.193 81.9267 158.289 82.3733 158.289 82.92V86H156.729V83.16C156.729 82.7267 156.639 82.4067 156.459 82.2C156.279 81.9933 156.026 81.89 155.699 81.89C155.473 81.89 155.269 81.9433 155.089 82.05C154.909 82.15 154.769 82.3033 154.669 82.51C154.569 82.7167 154.519 82.98 154.519 83.3V86H152.959V83.16C152.959 82.7267 152.869 82.4067 152.689 82.2C152.516 81.9933 152.266 81.89 151.939 81.89C151.713 81.89 151.509 81.9433 151.329 82.05C151.149 82.15 151.009 82.3033 150.909 82.51C150.809 82.7167 150.759 82.98 150.759 83.3V86H149.199V80.62H150.689V82.09L150.409 81.66C150.596 81.2933 150.859 81.0167 151.199 80.83C151.546 80.6367 151.939 80.54 152.379 80.54C152.873 80.54 153.303 80.6667 153.669 80.92C154.043 81.1667 154.289 81.5467 154.409 82.06L153.859 81.91C154.039 81.49 154.326 81.1567 154.719 80.91C155.119 80.6633 155.576 80.54 156.089 80.54ZM162.988 86V84.95L162.888 84.72V82.84C162.888 82.5067 162.784 82.2467 162.578 82.06C162.378 81.8733 162.068 81.78 161.648 81.78C161.361 81.78 161.078 81.8267 160.798 81.92C160.524 82.0067 160.291 82.1267 160.098 82.28L159.538 81.19C159.831 80.9833 160.184 80.8233 160.598 80.71C161.011 80.5967 161.431 80.54 161.858 80.54C162.678 80.54 163.314 80.7333 163.768 81.12C164.221 81.5067 164.448 82.11 164.448 82.93V86H162.988ZM161.348 86.08C160.928 86.08 160.568 86.01 160.268 85.87C159.968 85.7233 159.738 85.5267 159.578 85.28C159.418 85.0333 159.338 84.7567 159.338 84.45C159.338 84.13 159.414 83.85 159.568 83.61C159.728 83.37 159.978 83.1833 160.318 83.05C160.658 82.91 161.101 82.84 161.648 82.84H163.078V83.75H161.818C161.451 83.75 161.198 83.81 161.058 83.93C160.924 84.05 160.858 84.2 160.858 84.38C160.858 84.58 160.934 84.74 161.088 84.86C161.248 84.9733 161.464 85.03 161.738 85.03C161.998 85.03 162.231 84.97 162.438 84.85C162.644 84.7233 162.794 84.54 162.888 84.3L163.128 85.02C163.014 85.3667 162.808 85.63 162.508 85.81C162.208 85.99 161.821 86.08 161.348 86.08ZM168.429 88.02C167.922 88.02 167.432 87.9567 166.959 87.83C166.492 87.71 166.102 87.5267 165.789 87.28L166.409 86.16C166.635 86.3467 166.922 86.4933 167.269 86.6C167.622 86.7133 167.969 86.77 168.309 86.77C168.862 86.77 169.262 86.6467 169.509 86.4C169.762 86.1533 169.889 85.7867 169.889 85.3V84.49L169.989 83.14L169.969 81.78V80.62H171.449V85.1C171.449 86.1 171.189 86.8367 170.669 87.31C170.149 87.7833 169.402 88.02 168.429 88.02ZM168.189 85.74C167.689 85.74 167.235 85.6333 166.829 85.42C166.429 85.2 166.105 84.8967 165.859 84.51C165.619 84.1167 165.499 83.66 165.499 83.14C165.499 82.6133 165.619 82.1567 165.859 81.77C166.105 81.3767 166.429 81.0733 166.829 80.86C167.235 80.6467 167.689 80.54 168.189 80.54C168.642 80.54 169.042 80.6333 169.389 80.82C169.735 81 170.005 81.2833 170.199 81.67C170.392 82.05 170.489 82.54 170.489 83.14C170.489 83.7333 170.392 84.2233 170.199 84.61C170.005 84.99 169.735 85.2733 169.389 85.46C169.042 85.6467 168.642 85.74 168.189 85.74ZM168.499 84.46C168.772 84.46 169.015 84.4067 169.229 84.3C169.442 84.1867 169.609 84.03 169.729 83.83C169.849 83.63 169.909 83.4 169.909 83.14C169.909 82.8733 169.849 82.6433 169.729 82.45C169.609 82.25 169.442 82.0967 169.229 81.99C169.015 81.8767 168.772 81.82 168.499 81.82C168.225 81.82 167.982 81.8767 167.769 81.99C167.555 82.0967 167.385 82.25 167.259 82.45C167.139 82.6433 167.079 82.8733 167.079 83.14C167.079 83.4 167.139 83.63 167.259 83.83C167.385 84.03 167.555 84.1867 167.769 84.3C167.982 84.4067 168.225 84.46 168.499 84.46ZM175.571 86.08C174.957 86.08 174.417 85.96 173.951 85.72C173.491 85.48 173.134 85.1533 172.881 84.74C172.627 84.32 172.501 83.8433 172.501 83.31C172.501 82.77 172.624 82.2933 172.871 81.88C173.124 81.46 173.467 81.1333 173.901 80.9C174.334 80.66 174.824 80.54 175.371 80.54C175.897 80.54 176.371 80.6533 176.791 80.88C177.217 81.1 177.554 81.42 177.801 81.84C178.047 82.2533 178.171 82.75 178.171 83.33C178.171 83.39 178.167 83.46 178.161 83.54C178.154 83.6133 178.147 83.6833 178.141 83.75H173.771V82.84H177.321L176.721 83.11C176.721 82.83 176.664 82.5867 176.551 82.38C176.437 82.1733 176.281 82.0133 176.081 81.9C175.881 81.78 175.647 81.72 175.381 81.72C175.114 81.72 174.877 81.78 174.671 81.9C174.471 82.0133 174.314 82.1767 174.201 82.39C174.087 82.5967 174.031 82.8433 174.031 83.13V83.37C174.031 83.6633 174.094 83.9233 174.221 84.15C174.354 84.37 174.537 84.54 174.771 84.66C175.011 84.7733 175.291 84.83 175.611 84.83C175.897 84.83 176.147 84.7867 176.361 84.7C176.581 84.6133 176.781 84.4833 176.961 84.31L177.791 85.21C177.544 85.49 177.234 85.7067 176.861 85.86C176.487 86.0067 176.057 86.08 175.571 86.08ZM181.019 86.08C180.559 86.08 180.116 86.0267 179.689 85.92C179.269 85.8067 178.936 85.6667 178.689 85.5L179.209 84.38C179.456 84.5333 179.746 84.66 180.079 84.76C180.419 84.8533 180.753 84.9 181.079 84.9C181.439 84.9 181.693 84.8567 181.839 84.77C181.993 84.6833 182.069 84.5633 182.069 84.41C182.069 84.2833 182.009 84.19 181.889 84.13C181.776 84.0633 181.623 84.0133 181.429 83.98C181.236 83.9467 181.023 83.9133 180.789 83.88C180.563 83.8467 180.333 83.8033 180.099 83.75C179.866 83.69 179.653 83.6033 179.459 83.49C179.266 83.3767 179.109 83.2233 178.989 83.03C178.876 82.8367 178.819 82.5867 178.819 82.28C178.819 81.94 178.916 81.64 179.109 81.38C179.309 81.12 179.596 80.9167 179.969 80.77C180.343 80.6167 180.789 80.54 181.309 80.54C181.676 80.54 182.049 80.58 182.429 80.66C182.809 80.74 183.126 80.8567 183.379 81.01L182.859 82.12C182.599 81.9667 182.336 81.8633 182.069 81.81C181.809 81.75 181.556 81.72 181.309 81.72C180.963 81.72 180.709 81.7667 180.549 81.86C180.389 81.9533 180.309 82.0733 180.309 82.22C180.309 82.3533 180.366 82.4533 180.479 82.52C180.599 82.5867 180.756 82.64 180.949 82.68C181.143 82.72 181.353 82.7567 181.579 82.79C181.813 82.8167 182.046 82.86 182.279 82.92C182.513 82.98 182.723 83.0667 182.909 83.18C183.103 83.2867 183.259 83.4367 183.379 83.63C183.499 83.8167 183.559 84.0633 183.559 84.37C183.559 84.7033 183.459 85 183.259 85.26C183.059 85.5133 182.769 85.7133 182.389 85.86C182.016 86.0067 181.559 86.08 181.019 86.08Z" fill="white"/>
<path d="M155.64 71.24C154.667 71.24 153.7 71.1133 152.74 70.86C151.78 70.5933 150.967 70.22 150.3 69.74L151.56 67.26C152.094 67.6467 152.714 67.9533 153.42 68.18C154.127 68.4067 154.84 68.52 155.56 68.52C156.374 68.52 157.014 68.36 157.48 68.04C157.947 67.72 158.18 67.28 158.18 66.72C158.18 66.1867 157.974 65.7667 157.56 65.46C157.147 65.1533 156.48 65 155.56 65H154.08V62.86L157.98 58.44L158.34 59.6H151V57H160.8V59.1L156.92 63.52L155.28 62.58H156.22C157.94 62.58 159.24 62.9667 160.12 63.74C161 64.5133 161.44 65.5067 161.44 66.72C161.44 67.5067 161.234 68.2467 160.82 68.94C160.407 69.62 159.774 70.1733 158.92 70.6C158.067 71.0267 156.974 71.24 155.64 71.24ZM163.816 71V57H170.176C171.696 57 173.036 57.2933 174.196 57.88C175.356 58.4533 176.263 59.26 176.916 60.3C177.57 61.34 177.896 62.5733 177.896 64C177.896 65.4133 177.57 66.6467 176.916 67.7C176.263 68.74 175.356 69.5533 174.196 70.14C173.036 70.7133 171.696 71 170.176 71H163.816ZM167.056 68.34H170.016C170.95 68.34 171.756 68.1667 172.436 67.82C173.13 67.46 173.663 66.9533 174.036 66.3C174.423 65.6467 174.616 64.88 174.616 64C174.616 63.1067 174.423 62.34 174.036 61.7C173.663 61.0467 173.13 60.5467 172.436 60.2C171.756 59.84 170.95 59.66 170.016 59.66H167.056V68.34Z" fill="white"/>
<defs>
<linearGradient id="paint0_linear_27_114" x1="223" y1="138" x2="1.10829e-05" y2="4" gradientUnits="userSpaceOnUse">
<stop stop-color="#9569E8"/>
<stop offset="1" stop-color="#D2AAFC" stop-opacity="0.22"/>
</linearGradient>
<linearGradient id="paint1_linear_27_114" x1="164" y1="38" x2="164" y2="100" gradientUnits="userSpaceOnUse">
<stop stop-color="#6E3EDB"/>
<stop offset="1" stop-color="#D6AFFD"/>
</linearGradient>
</defs>
</svg>
