<svg width="223" height="232" viewBox="0 0 223 232" fill="none" xmlns="http://www.w3.org/2000/svg">
<rect x="0.5" y="0.5" width="222" height="137" rx="19.5" stroke="url(#paint0_linear_27_122)"/>
<path d="M63.0402 188.2L62.7702 182.59L72.8202 172H78.2202L69.1602 181.75L66.4602 184.63L63.0402 188.2ZM58.6902 193V172H63.5202V193H58.6902ZM73.0602 193L65.5902 183.85L68.7702 180.4L78.7302 193H73.0602ZM80.5672 193V176.86H85.2472V193H80.5672ZM82.9072 174.61C82.0472 174.61 81.3472 174.36 80.8072 173.86C80.2672 173.36 79.9972 172.74 79.9972 172C79.9972 171.26 80.2672 170.64 80.8072 170.14C81.3472 169.64 82.0472 169.39 82.9072 169.39C83.7672 169.39 84.4672 169.63 85.0072 170.11C85.5472 170.57 85.8172 171.17 85.8172 171.91C85.8172 172.69 85.5472 173.34 85.0072 173.86C84.4872 174.36 83.7872 174.61 82.9072 174.61ZM96.1907 193.24C94.2907 193.24 92.8107 192.76 91.7507 191.8C90.6907 190.82 90.1607 189.37 90.1607 187.45V173.29H94.8407V187.39C94.8407 188.07 95.0207 188.6 95.3807 188.98C95.7407 189.34 96.2307 189.52 96.8507 189.52C97.5907 189.52 98.2207 189.32 98.7407 188.92L100.001 192.22C99.5207 192.56 98.9407 192.82 98.2607 193C97.6007 193.16 96.9107 193.24 96.1907 193.24ZM87.6707 180.82V177.22H98.8607V180.82H87.6707ZM109.81 193.24C108.09 193.24 106.56 192.88 105.22 192.16C103.9 191.44 102.85 190.46 102.07 189.22C101.31 187.96 100.93 186.53 100.93 184.93C100.93 183.31 101.31 181.88 102.07 180.64C102.85 179.38 103.9 178.4 105.22 177.7C106.56 176.98 108.09 176.62 109.81 176.62C111.51 176.62 113.03 176.98 114.37 177.7C115.71 178.4 116.76 179.37 117.52 180.61C118.28 181.85 118.66 183.29 118.66 184.93C118.66 186.53 118.28 187.96 117.52 189.22C116.76 190.46 115.71 191.44 114.37 192.16C113.03 192.88 111.51 193.24 109.81 193.24ZM109.81 189.4C110.59 189.4 111.29 189.22 111.91 188.86C112.53 188.5 113.02 187.99 113.38 187.33C113.74 186.65 113.92 185.85 113.92 184.93C113.92 183.99 113.74 183.19 113.38 182.53C113.02 181.87 112.53 181.36 111.91 181C111.29 180.64 110.59 180.46 109.81 180.46C109.03 180.46 108.33 180.64 107.71 181C107.09 181.36 106.59 181.87 106.21 182.53C105.85 183.19 105.67 183.99 105.67 184.93C105.67 185.85 105.85 186.65 106.21 187.33C106.59 187.99 107.09 188.5 107.71 188.86C108.33 189.22 109.03 189.4 109.81 189.4ZM131.328 193.24C129.908 193.24 128.688 192.94 127.668 192.34C126.648 191.74 125.868 190.83 125.328 189.61C124.788 188.37 124.518 186.81 124.518 184.93C124.518 183.03 124.798 181.47 125.358 180.25C125.938 179.03 126.738 178.12 127.758 177.52C128.778 176.92 129.968 176.62 131.328 176.62C132.848 176.62 134.208 176.96 135.408 177.64C136.628 178.32 137.588 179.28 138.288 180.52C139.008 181.76 139.368 183.23 139.368 184.93C139.368 186.61 139.008 188.07 138.288 189.31C137.588 190.55 136.628 191.52 135.408 192.22C134.208 192.9 132.848 193.24 131.328 193.24ZM121.788 193V170.74H126.468V180.13L126.168 184.9L126.258 189.7V193H121.788ZM130.518 189.4C131.298 189.4 131.988 189.22 132.588 188.86C133.208 188.5 133.698 187.99 134.058 187.33C134.438 186.65 134.628 185.85 134.628 184.93C134.628 183.99 134.438 183.19 134.058 182.53C133.698 181.87 133.208 181.36 132.588 181C131.988 180.64 131.298 180.46 130.518 180.46C129.738 180.46 129.038 180.64 128.418 181C127.798 181.36 127.308 181.87 126.948 182.53C126.588 183.19 126.408 183.99 126.408 184.93C126.408 185.85 126.588 186.65 126.948 187.33C127.308 187.99 127.798 188.5 128.418 188.86C129.038 189.22 129.738 189.4 130.518 189.4ZM142.501 193V170.74H147.181V193H142.501ZM161.424 193V189.85L161.124 189.16V183.52C161.124 182.52 160.814 181.74 160.194 181.18C159.594 180.62 158.664 180.34 157.404 180.34C156.544 180.34 155.694 180.48 154.854 180.76C154.034 181.02 153.334 181.38 152.754 181.84L151.074 178.57C151.954 177.95 153.014 177.47 154.254 177.13C155.494 176.79 156.754 176.62 158.034 176.62C160.494 176.62 162.404 177.2 163.764 178.36C165.124 179.52 165.804 181.33 165.804 183.79V193H161.424ZM156.504 193.24C155.244 193.24 154.164 193.03 153.264 192.61C152.364 192.17 151.674 191.58 151.194 190.84C150.714 190.1 150.474 189.27 150.474 188.35C150.474 187.39 150.704 186.55 151.164 185.83C151.644 185.11 152.394 184.55 153.414 184.15C154.434 183.73 155.764 183.52 157.404 183.52H161.694V186.25H157.914C156.814 186.25 156.054 186.43 155.634 186.79C155.234 187.15 155.034 187.6 155.034 188.14C155.034 188.74 155.264 189.22 155.724 189.58C156.204 189.92 156.854 190.09 157.674 190.09C158.454 190.09 159.154 189.91 159.774 189.55C160.394 189.17 160.844 188.62 161.124 187.9L161.844 190.06C161.504 191.1 160.884 191.89 159.984 192.43C159.084 192.97 157.924 193.24 156.504 193.24ZM170.04 193V176.86H174.51V181.42L173.88 180.1C174.36 178.96 175.13 178.1 176.19 177.52C177.25 176.92 178.54 176.62 180.06 176.62V180.94C179.86 180.92 179.68 180.91 179.52 180.91C179.36 180.89 179.19 180.88 179.01 180.88C177.73 180.88 176.69 181.25 175.89 181.99C175.11 182.71 174.72 183.84 174.72 185.38V193H170.04Z" fill="white"/>
<path d="M51.7966 83V78.8L62.5966 68.6C63.4499 67.8267 64.0766 67.1333 64.4766 66.52C64.8766 65.9067 65.1432 65.3467 65.2766 64.84C65.4366 64.3333 65.5166 63.8667 65.5166 63.44C65.5166 62.32 65.1299 61.4667 64.3566 60.88C63.6099 60.2667 62.5032 59.96 61.0366 59.96C59.8632 59.96 58.7699 60.1867 57.7566 60.64C56.7699 61.0933 55.9299 61.8 55.2366 62.76L50.5166 59.72C51.5832 58.12 53.0766 56.8533 54.9966 55.92C56.9166 54.9867 59.1299 54.52 61.6366 54.52C63.7166 54.52 65.5299 54.8667 67.0766 55.56C68.6499 56.2267 69.8632 57.1733 70.7166 58.4C71.5966 59.6267 72.0366 61.0933 72.0366 62.8C72.0366 63.7067 71.9166 64.6133 71.6766 65.52C71.4632 66.4 71.0099 67.3333 70.3166 68.32C69.6499 69.3067 68.6632 70.4133 67.3566 71.64L58.3966 80.08L57.1566 77.72H72.9566V83H51.7966ZM85.1503 83.48C83.2036 83.48 81.2703 83.2267 79.3503 82.72C77.457 82.1867 75.8303 81.44 74.4703 80.48L77.0303 75.52C78.097 76.2933 79.3236 76.9067 80.7103 77.36C82.1236 77.8133 83.5503 78.04 84.9903 78.04C86.617 78.04 87.897 77.72 88.8303 77.08C89.7636 76.44 90.2303 75.5467 90.2303 74.4C90.2303 73.68 90.0436 73.04 89.6703 72.48C89.297 71.92 88.6303 71.4933 87.6703 71.2C86.737 70.9067 85.417 70.76 83.7103 70.76H76.5503L77.9903 55H95.0703V60.2H80.3103L83.6703 57.24L82.6703 68.48L79.3103 65.52H85.2303C88.0036 65.52 90.2303 65.9067 91.9103 66.68C93.617 67.4267 94.857 68.4533 95.6303 69.76C96.4036 71.0667 96.7903 72.5467 96.7903 74.2C96.7903 75.8533 96.377 77.3867 95.5503 78.8C94.7236 80.1867 93.4436 81.32 91.7103 82.2C90.0036 83.0533 87.817 83.48 85.1503 83.48ZM103.739 83V57.4L106.539 60.2H98.1394V55H110.219V83H103.739Z" fill="#C9A3A1"/>
<circle cx="168" cy="69" r="31" fill="url(#paint1_linear_27_122)"/>
<path d="M150.028 86V79H151.648V86H150.028ZM160.089 80.54C160.516 80.54 160.893 80.6267 161.219 80.8C161.553 80.9667 161.813 81.2267 161.999 81.58C162.193 81.9267 162.289 82.3733 162.289 82.92V86H160.729V83.16C160.729 82.7267 160.639 82.4067 160.459 82.2C160.279 81.9933 160.026 81.89 159.699 81.89C159.473 81.89 159.269 81.9433 159.089 82.05C158.909 82.15 158.769 82.3033 158.669 82.51C158.569 82.7167 158.519 82.98 158.519 83.3V86H156.959V83.16C156.959 82.7267 156.869 82.4067 156.689 82.2C156.516 81.9933 156.266 81.89 155.939 81.89C155.713 81.89 155.509 81.9433 155.329 82.05C155.149 82.15 155.009 82.3033 154.909 82.51C154.809 82.7167 154.759 82.98 154.759 83.3V86H153.199V80.62H154.689V82.09L154.409 81.66C154.596 81.2933 154.859 81.0167 155.199 80.83C155.546 80.6367 155.939 80.54 156.379 80.54C156.873 80.54 157.303 80.6667 157.669 80.92C158.043 81.1667 158.289 81.5467 158.409 82.06L157.859 81.91C158.039 81.49 158.326 81.1567 158.719 80.91C159.119 80.6633 159.576 80.54 160.089 80.54ZM166.988 86V84.95L166.888 84.72V82.84C166.888 82.5067 166.784 82.2467 166.578 82.06C166.378 81.8733 166.068 81.78 165.648 81.78C165.361 81.78 165.078 81.8267 164.798 81.92C164.524 82.0067 164.291 82.1267 164.098 82.28L163.538 81.19C163.831 80.9833 164.184 80.8233 164.598 80.71C165.011 80.5967 165.431 80.54 165.858 80.54C166.678 80.54 167.314 80.7333 167.768 81.12C168.221 81.5067 168.448 82.11 168.448 82.93V86H166.988ZM165.348 86.08C164.928 86.08 164.568 86.01 164.268 85.87C163.968 85.7233 163.738 85.5267 163.578 85.28C163.418 85.0333 163.338 84.7567 163.338 84.45C163.338 84.13 163.414 83.85 163.568 83.61C163.728 83.37 163.978 83.1833 164.318 83.05C164.658 82.91 165.101 82.84 165.648 82.84H167.078V83.75H165.818C165.451 83.75 165.198 83.81 165.058 83.93C164.924 84.05 164.858 84.2 164.858 84.38C164.858 84.58 164.934 84.74 165.088 84.86C165.248 84.9733 165.464 85.03 165.738 85.03C165.998 85.03 166.231 84.97 166.438 84.85C166.644 84.7233 166.794 84.54 166.888 84.3L167.128 85.02C167.014 85.3667 166.808 85.63 166.508 85.81C166.208 85.99 165.821 86.08 165.348 86.08ZM172.429 88.02C171.922 88.02 171.432 87.9567 170.959 87.83C170.492 87.71 170.102 87.5267 169.789 87.28L170.409 86.16C170.635 86.3467 170.922 86.4933 171.269 86.6C171.622 86.7133 171.969 86.77 172.309 86.77C172.862 86.77 173.262 86.6467 173.509 86.4C173.762 86.1533 173.889 85.7867 173.889 85.3V84.49L173.989 83.14L173.969 81.78V80.62H175.449V85.1C175.449 86.1 175.189 86.8367 174.669 87.31C174.149 87.7833 173.402 88.02 172.429 88.02ZM172.189 85.74C171.689 85.74 171.235 85.6333 170.829 85.42C170.429 85.2 170.105 84.8967 169.859 84.51C169.619 84.1167 169.499 83.66 169.499 83.14C169.499 82.6133 169.619 82.1567 169.859 81.77C170.105 81.3767 170.429 81.0733 170.829 80.86C171.235 80.6467 171.689 80.54 172.189 80.54C172.642 80.54 173.042 80.6333 173.389 80.82C173.735 81 174.005 81.2833 174.199 81.67C174.392 82.05 174.489 82.54 174.489 83.14C174.489 83.7333 174.392 84.2233 174.199 84.61C174.005 84.99 173.735 85.2733 173.389 85.46C173.042 85.6467 172.642 85.74 172.189 85.74ZM172.499 84.46C172.772 84.46 173.015 84.4067 173.229 84.3C173.442 84.1867 173.609 84.03 173.729 83.83C173.849 83.63 173.909 83.4 173.909 83.14C173.909 82.8733 173.849 82.6433 173.729 82.45C173.609 82.25 173.442 82.0967 173.229 81.99C173.015 81.8767 172.772 81.82 172.499 81.82C172.225 81.82 171.982 81.8767 171.769 81.99C171.555 82.0967 171.385 82.25 171.259 82.45C171.139 82.6433 171.079 82.8733 171.079 83.14C171.079 83.4 171.139 83.63 171.259 83.83C171.385 84.03 171.555 84.1867 171.769 84.3C171.982 84.4067 172.225 84.46 172.499 84.46ZM179.571 86.08C178.957 86.08 178.417 85.96 177.951 85.72C177.491 85.48 177.134 85.1533 176.881 84.74C176.627 84.32 176.501 83.8433 176.501 83.31C176.501 82.77 176.624 82.2933 176.871 81.88C177.124 81.46 177.467 81.1333 177.901 80.9C178.334 80.66 178.824 80.54 179.371 80.54C179.897 80.54 180.371 80.6533 180.791 80.88C181.217 81.1 181.554 81.42 181.801 81.84C182.047 82.2533 182.171 82.75 182.171 83.33C182.171 83.39 182.167 83.46 182.161 83.54C182.154 83.6133 182.147 83.6833 182.141 83.75H177.771V82.84H181.321L180.721 83.11C180.721 82.83 180.664 82.5867 180.551 82.38C180.437 82.1733 180.281 82.0133 180.081 81.9C179.881 81.78 179.647 81.72 179.381 81.72C179.114 81.72 178.877 81.78 178.671 81.9C178.471 82.0133 178.314 82.1767 178.201 82.39C178.087 82.5967 178.031 82.8433 178.031 83.13V83.37C178.031 83.6633 178.094 83.9233 178.221 84.15C178.354 84.37 178.537 84.54 178.771 84.66C179.011 84.7733 179.291 84.83 179.611 84.83C179.897 84.83 180.147 84.7867 180.361 84.7C180.581 84.6133 180.781 84.4833 180.961 84.31L181.791 85.21C181.544 85.49 181.234 85.7067 180.861 85.86C180.487 86.0067 180.057 86.08 179.571 86.08ZM185.019 86.08C184.559 86.08 184.116 86.0267 183.689 85.92C183.269 85.8067 182.936 85.6667 182.689 85.5L183.209 84.38C183.456 84.5333 183.746 84.66 184.079 84.76C184.419 84.8533 184.753 84.9 185.079 84.9C185.439 84.9 185.693 84.8567 185.839 84.77C185.993 84.6833 186.069 84.5633 186.069 84.41C186.069 84.2833 186.009 84.19 185.889 84.13C185.776 84.0633 185.623 84.0133 185.429 83.98C185.236 83.9467 185.023 83.9133 184.789 83.88C184.563 83.8467 184.333 83.8033 184.099 83.75C183.866 83.69 183.653 83.6033 183.459 83.49C183.266 83.3767 183.109 83.2233 182.989 83.03C182.876 82.8367 182.819 82.5867 182.819 82.28C182.819 81.94 182.916 81.64 183.109 81.38C183.309 81.12 183.596 80.9167 183.969 80.77C184.343 80.6167 184.789 80.54 185.309 80.54C185.676 80.54 186.049 80.58 186.429 80.66C186.809 80.74 187.126 80.8567 187.379 81.01L186.859 82.12C186.599 81.9667 186.336 81.8633 186.069 81.81C185.809 81.75 185.556 81.72 185.309 81.72C184.963 81.72 184.709 81.7667 184.549 81.86C184.389 81.9533 184.309 82.0733 184.309 82.22C184.309 82.3533 184.366 82.4533 184.479 82.52C184.599 82.5867 184.756 82.64 184.949 82.68C185.143 82.72 185.353 82.7567 185.579 82.79C185.813 82.8167 186.046 82.86 186.279 82.92C186.513 82.98 186.723 83.0667 186.909 83.18C187.103 83.2867 187.259 83.4367 187.379 83.63C187.499 83.8167 187.559 84.0633 187.559 84.37C187.559 84.7033 187.459 85 187.259 85.26C187.059 85.5133 186.769 85.7133 186.389 85.86C186.016 86.0067 185.559 86.08 185.019 86.08Z" fill="white"/>
<path d="M159.64 71.24C158.667 71.24 157.7 71.1133 156.74 70.86C155.78 70.5933 154.967 70.22 154.3 69.74L155.56 67.26C156.094 67.6467 156.714 67.9533 157.42 68.18C158.127 68.4067 158.84 68.52 159.56 68.52C160.374 68.52 161.014 68.36 161.48 68.04C161.947 67.72 162.18 67.28 162.18 66.72C162.18 66.1867 161.974 65.7667 161.56 65.46C161.147 65.1533 160.48 65 159.56 65H158.08V62.86L161.98 58.44L162.34 59.6H155V57H164.8V59.1L160.92 63.52L159.28 62.58H160.22C161.94 62.58 163.24 62.9667 164.12 63.74C165 64.5133 165.44 65.5067 165.44 66.72C165.44 67.5067 165.234 68.2467 164.82 68.94C164.407 69.62 163.774 70.1733 162.92 70.6C162.067 71.0267 160.974 71.24 159.64 71.24ZM167.816 71V57H174.176C175.696 57 177.036 57.2933 178.196 57.88C179.356 58.4533 180.263 59.26 180.916 60.3C181.57 61.34 181.896 62.5733 181.896 64C181.896 65.4133 181.57 66.6467 180.916 67.7C180.263 68.74 179.356 69.5533 178.196 70.14C177.036 70.7133 175.696 71 174.176 71H167.816ZM171.056 68.34H174.016C174.95 68.34 175.756 68.1667 176.436 67.82C177.13 67.46 177.663 66.9533 178.036 66.3C178.423 65.6467 178.616 64.88 178.616 64C178.616 63.1067 178.423 62.34 178.036 61.7C177.663 61.0467 177.13 60.5467 176.436 60.2C175.756 59.84 174.95 59.66 174.016 59.66H171.056V68.34Z" fill="white"/>
<defs>
<linearGradient id="paint0_linear_27_122" x1="0" y1="0" x2="223" y2="160" gradientUnits="userSpaceOnUse">
<stop stop-color="#FFAFBE"/>
<stop offset="1" stop-color="#AB4255"/>
</linearGradient>
<linearGradient id="paint1_linear_27_122" x1="168" y1="38" x2="168" y2="100" gradientUnits="userSpaceOnUse">
<stop stop-color="#E9977A"/>
<stop offset="1" stop-color="#FFAFBE"/>
</linearGradient>
</defs>
</svg>
