<svg width="474" height="151" viewBox="0 0 474 151" fill="none" xmlns="http://www.w3.org/2000/svg">
<path d="M0.986758 7H12.3268V46.76H36.8968V56H0.986758V7ZM60.1094 56.56C56.1427 56.56 52.5727 55.7433 49.3994 54.11C46.2727 52.43 43.8227 50.12 42.0494 47.18C40.2761 44.24 39.3894 40.9033 39.3894 37.17C39.3894 33.4367 40.2761 30.1 42.0494 27.16C43.8227 24.22 46.2727 21.9333 49.3994 20.3C52.5727 18.62 56.1427 17.78 60.1094 17.78C64.0761 17.78 67.6227 18.62 70.7494 20.3C73.8761 21.9333 76.3261 24.22 78.0994 27.16C79.8727 30.1 80.7594 33.4367 80.7594 37.17C80.7594 40.9033 79.8727 44.24 78.0994 47.18C76.3261 50.12 73.8761 52.43 70.7494 54.11C67.6227 55.7433 64.0761 56.56 60.1094 56.56ZM60.1094 47.6C62.9094 47.6 65.1961 46.6667 66.9694 44.8C68.7894 42.8867 69.6994 40.3433 69.6994 37.17C69.6994 33.9967 68.7894 31.4767 66.9694 29.61C65.1961 27.6967 62.9094 26.74 60.1094 26.74C57.3094 26.74 54.9994 27.6967 53.1794 29.61C51.3594 31.4767 50.4494 33.9967 50.4494 37.17C50.4494 40.3433 51.3594 42.8867 53.1794 44.8C54.9994 46.6667 57.3094 47.6 60.1094 47.6ZM98.4886 23.31C99.7952 21.49 101.545 20.1133 103.739 19.18C105.979 18.2467 108.545 17.78 111.439 17.78V27.86C110.225 27.7667 109.409 27.72 108.989 27.72C105.862 27.72 103.412 28.6067 101.639 30.38C99.8652 32.1067 98.9786 34.72 98.9786 38.22V56H88.0586V18.34H98.4886V23.31ZM136.56 47.81C138.52 47.81 140.246 47.53 141.74 46.97C143.28 46.3633 144.703 45.43 146.01 44.17L151.82 50.47C148.273 54.53 143.093 56.56 136.28 56.56C132.033 56.56 128.276 55.7433 125.01 54.11C121.743 52.43 119.223 50.12 117.45 47.18C115.676 44.24 114.79 40.9033 114.79 37.17C114.79 33.4833 115.653 30.17 117.38 27.23C119.153 24.2433 121.556 21.9333 124.59 20.3C127.67 18.62 131.123 17.78 134.95 17.78C138.543 17.78 141.81 18.55 144.75 20.09C147.69 21.5833 150.023 23.7767 151.75 26.67C153.523 29.5167 154.41 32.9 154.41 36.82L126.55 42.21C127.343 44.0767 128.58 45.4767 130.26 46.41C131.986 47.3433 134.086 47.81 136.56 47.81ZM134.95 26.04C132.196 26.04 129.956 26.9267 128.23 28.7C126.503 30.4733 125.593 32.9233 125.5 36.05L143.84 32.48C143.326 30.52 142.276 28.9567 140.69 27.79C139.103 26.6233 137.19 26.04 134.95 26.04ZM209.98 17.78C214.693 17.78 218.427 19.18 221.18 21.98C223.98 24.7333 225.38 28.8867 225.38 34.44V56H214.46V36.12C214.46 33.1333 213.83 30.9167 212.57 29.47C211.357 27.9767 209.607 27.23 207.32 27.23C204.753 27.23 202.723 28.07 201.23 29.75C199.737 31.3833 198.99 33.8333 198.99 37.1V56H188.07V36.12C188.07 30.1933 185.69 27.23 180.93 27.23C178.41 27.23 176.403 28.07 174.91 29.75C173.417 31.3833 172.67 33.8333 172.67 37.1V56H161.75V18.34H172.18V22.68C173.58 21.0933 175.283 19.88 177.29 19.04C179.343 18.2 181.583 17.78 184.01 17.78C186.67 17.78 189.073 18.3167 191.22 19.39C193.367 20.4167 195.093 21.9333 196.4 23.94C197.94 21.98 199.877 20.4633 202.21 19.39C204.59 18.3167 207.18 17.78 209.98 17.78ZM254.992 18.34H265.912V56H254.992V18.34ZM260.452 13.09C258.445 13.09 256.812 12.5067 255.552 11.34C254.292 10.1733 253.662 8.72666 253.662 7C253.662 5.27333 254.292 3.82666 255.552 2.66C256.812 1.49333 258.445 0.909996 260.452 0.909996C262.459 0.909996 264.092 1.47 265.352 2.59C266.612 3.71 267.242 5.11 267.242 6.79C267.242 8.61 266.612 10.1267 265.352 11.34C264.092 12.5067 262.459 13.09 260.452 13.09ZM298.307 17.78C301.807 17.78 304.98 18.5967 307.827 20.23C310.72 21.8167 312.984 24.08 314.617 27.02C316.25 29.9133 317.067 33.2967 317.067 37.17C317.067 41.0433 316.25 44.45 314.617 47.39C312.984 50.2833 310.72 52.5467 307.827 54.18C304.98 55.7667 301.807 56.56 298.307 56.56C293.5 56.56 289.72 55.0433 286.967 52.01V69.58H276.047V18.34H286.477V22.68C289.184 19.4133 293.127 17.78 298.307 17.78ZM296.417 47.6C299.217 47.6 301.504 46.6667 303.277 44.8C305.097 42.8867 306.007 40.3433 306.007 37.17C306.007 33.9967 305.097 31.4767 303.277 29.61C301.504 27.6967 299.217 26.74 296.417 26.74C293.617 26.74 291.307 27.6967 289.487 29.61C287.714 31.4767 286.827 33.9967 286.827 37.17C286.827 40.3433 287.714 42.8867 289.487 44.8C291.307 46.6667 293.617 47.6 296.417 47.6ZM337.047 56.56C333.92 56.56 330.864 56.1867 327.877 55.44C324.89 54.6467 322.51 53.6667 320.737 52.5L324.377 44.66C326.057 45.7333 328.087 46.62 330.467 47.32C332.847 47.9733 335.18 48.3 337.467 48.3C342.087 48.3 344.397 47.1567 344.397 44.87C344.397 43.7967 343.767 43.0267 342.507 42.56C341.247 42.0933 339.31 41.6967 336.697 41.37C333.617 40.9033 331.074 40.3667 329.067 39.76C327.06 39.1533 325.31 38.08 323.817 36.54C322.37 35 321.647 32.8067 321.647 29.96C321.647 27.58 322.324 25.48 323.677 23.66C325.077 21.7933 327.084 20.3467 329.697 19.32C332.357 18.2933 335.484 17.78 339.077 17.78C341.737 17.78 344.374 18.0833 346.987 18.69C349.647 19.25 351.84 20.0433 353.567 21.07L349.927 28.84C346.614 26.9733 342.997 26.04 339.077 26.04C336.744 26.04 334.994 26.3667 333.827 27.02C332.66 27.6733 332.077 28.5133 332.077 29.54C332.077 30.7067 332.707 31.5233 333.967 31.99C335.227 32.4567 337.234 32.9 339.987 33.32C343.067 33.8333 345.587 34.3933 347.547 35C349.507 35.56 351.21 36.61 352.657 38.15C354.104 39.69 354.827 41.8367 354.827 44.59C354.827 46.9233 354.127 49 352.727 50.82C351.327 52.64 349.274 54.0633 346.567 55.09C343.907 56.07 340.734 56.56 337.047 56.56ZM399.504 18.34V56H389.144V51.52C387.698 53.1533 385.971 54.4133 383.964 55.3C381.958 56.14 379.788 56.56 377.454 56.56C372.508 56.56 368.588 55.1367 365.694 52.29C362.801 49.4433 361.354 45.22 361.354 39.62V18.34H372.274V38.01C372.274 44.0767 374.818 47.11 379.904 47.11C382.518 47.11 384.618 46.27 386.204 44.59C387.791 42.8633 388.584 40.32 388.584 36.96V18.34H399.504ZM457.851 17.78C462.564 17.78 466.298 19.18 469.051 21.98C471.851 24.7333 473.251 28.8867 473.251 34.44V56H462.331V36.12C462.331 33.1333 461.701 30.9167 460.441 29.47C459.228 27.9767 457.478 27.23 455.191 27.23C452.624 27.23 450.594 28.07 449.101 29.75C447.608 31.3833 446.861 33.8333 446.861 37.1V56H435.941V36.12C435.941 30.1933 433.561 27.23 428.801 27.23C426.281 27.23 424.274 28.07 422.781 29.75C421.288 31.3833 420.541 33.8333 420.541 37.1V56H409.621V18.34H420.051V22.68C421.451 21.0933 423.154 19.88 425.161 19.04C427.214 18.2 429.454 17.78 431.881 17.78C434.541 17.78 436.944 18.3167 439.091 19.39C441.238 20.4167 442.964 21.9333 444.271 23.94C445.811 21.98 447.748 20.4633 450.081 19.39C452.461 18.3167 455.051 17.78 457.851 17.78ZM91.9425 98.34L76.0525 136H64.7825L48.9625 98.34H60.2325L70.6625 123.96L81.4425 98.34H91.9425ZM114.343 127.81C116.303 127.81 118.03 127.53 119.523 126.97C121.063 126.363 122.486 125.43 123.793 124.17L129.603 130.47C126.056 134.53 120.876 136.56 114.063 136.56C109.816 136.56 106.06 135.743 102.793 134.11C99.5263 132.43 97.0063 130.12 95.233 127.18C93.4597 124.24 92.573 120.903 92.573 117.17C92.573 113.483 93.4363 110.17 95.163 107.23C96.9363 104.243 99.3397 101.933 102.373 100.3C105.453 98.62 108.906 97.78 112.733 97.78C116.326 97.78 119.593 98.55 122.533 100.09C125.473 101.583 127.806 103.777 129.533 106.67C131.306 109.517 132.193 112.9 132.193 116.82L104.333 122.21C105.126 124.077 106.363 125.477 108.043 126.41C109.77 127.343 111.87 127.81 114.343 127.81ZM112.733 106.04C109.98 106.04 107.74 106.927 106.013 108.7C104.286 110.473 103.376 112.923 103.283 116.05L121.623 112.48C121.11 110.52 120.06 108.957 118.473 107.79C116.886 106.623 114.973 106.04 112.733 106.04ZM149.963 103.31C151.27 101.49 153.02 100.113 155.213 99.18C157.453 98.2467 160.02 97.78 162.913 97.78V107.86C161.7 107.767 160.883 107.72 160.463 107.72C157.336 107.72 154.886 108.607 153.113 110.38C151.34 112.107 150.453 114.72 150.453 118.22V136H139.533V98.34H149.963V103.31ZM207.62 98.34V129.7C207.62 136.607 205.87 141.74 202.37 145.1C198.87 148.46 193.783 150.14 187.11 150.14C183.563 150.14 180.203 149.697 177.03 148.81C173.903 147.923 171.266 146.64 169.12 144.96L173.46 137.12C175.046 138.427 176.983 139.453 179.27 140.2C181.556 140.947 183.866 141.32 186.2 141.32C189.84 141.32 192.5 140.48 194.18 138.8C195.86 137.12 196.7 134.553 196.7 131.1V129.84C195.3 131.24 193.643 132.313 191.73 133.06C189.816 133.807 187.763 134.18 185.57 134.18C180.623 134.18 176.703 132.78 173.81 129.98C170.916 127.133 169.47 122.887 169.47 117.24V98.34H180.39V115.63C180.39 121.743 182.933 124.8 188.02 124.8C190.633 124.8 192.733 123.96 194.32 122.28C195.906 120.553 196.7 118.01 196.7 114.65V98.34H207.62ZM285.791 97.78C290.504 97.78 294.237 99.18 296.991 101.98C299.791 104.733 301.191 108.887 301.191 114.44V136H290.271V116.12C290.271 113.133 289.641 110.917 288.381 109.47C287.167 107.977 285.417 107.23 283.131 107.23C280.564 107.23 278.534 108.07 277.041 109.75C275.547 111.383 274.801 113.833 274.801 117.1V136H263.881V116.12C263.881 110.193 261.501 107.23 256.741 107.23C254.221 107.23 252.214 108.07 250.721 109.75C249.227 111.383 248.481 113.833 248.481 117.1V136H237.561V98.34H247.991V102.68C249.391 101.093 251.094 99.88 253.101 99.04C255.154 98.2 257.394 97.78 259.821 97.78C262.481 97.78 264.884 98.3167 267.031 99.39C269.177 100.417 270.904 101.933 272.211 103.94C273.751 101.98 275.687 100.463 278.021 99.39C280.401 98.3167 282.991 97.78 285.791 97.78ZM348.918 98.34V136H338.558V131.52C337.112 133.153 335.385 134.413 333.378 135.3C331.372 136.14 329.202 136.56 326.868 136.56C321.922 136.56 318.002 135.137 315.108 132.29C312.215 129.443 310.768 125.22 310.768 119.62V98.34H321.688V118.01C321.688 124.077 324.232 127.11 329.318 127.11C331.932 127.11 334.032 126.27 335.618 124.59C337.205 122.863 337.998 120.32 337.998 116.96V98.34H348.918ZM377.235 136.56C373.222 136.56 369.605 135.743 366.385 134.11C363.212 132.43 360.715 130.12 358.895 127.18C357.122 124.24 356.235 120.903 356.235 117.17C356.235 113.437 357.122 110.1 358.895 107.16C360.715 104.22 363.212 101.933 366.385 100.3C369.605 98.62 373.222 97.78 377.235 97.78C381.202 97.78 384.655 98.62 387.595 100.3C390.582 101.933 392.752 104.29 394.105 107.37L385.635 111.92C383.675 108.467 380.852 106.74 377.165 106.74C374.318 106.74 371.962 107.673 370.095 109.54C368.228 111.407 367.295 113.95 367.295 117.17C367.295 120.39 368.228 122.933 370.095 124.8C371.962 126.667 374.318 127.6 377.165 127.6C380.898 127.6 383.722 125.873 385.635 122.42L394.105 127.04C392.752 130.027 390.582 132.36 387.595 134.04C384.655 135.72 381.202 136.56 377.235 136.56ZM423.009 97.78C427.676 97.78 431.432 99.18 434.279 101.98C437.172 104.78 438.619 108.933 438.619 114.44V136H427.699V116.12C427.699 113.133 427.046 110.917 425.739 109.47C424.432 107.977 422.542 107.23 420.069 107.23C417.316 107.23 415.122 108.093 413.489 109.82C411.856 111.5 411.039 114.02 411.039 117.38V136H400.119V84.06H411.039V102.26C412.486 100.813 414.236 99.7167 416.289 98.97C418.342 98.1767 420.582 97.78 423.009 97.78Z" fill="#2B3F6C"/>
</svg>
