<svg width="259" height="231" viewBox="0 0 259 231" fill="none" xmlns="http://www.w3.org/2000/svg">
<g filter="url(#filter0_d_22_98)">
<rect x="50" y="50" width="159" height="131" rx="30" fill="white"/>
</g>
<path d="M93.4377 153.24C92.3177 153.24 91.2444 153.093 90.2177 152.8C89.1911 152.493 88.3644 152.1 87.7377 151.62L88.8377 149.18C89.4377 149.607 90.1444 149.96 90.9577 150.24C91.7844 150.507 92.6177 150.64 93.4577 150.64C94.0977 150.64 94.6111 150.58 94.9977 150.46C95.3977 150.327 95.6911 150.147 95.8777 149.92C96.0644 149.693 96.1577 149.433 96.1577 149.14C96.1577 148.767 96.0111 148.473 95.7177 148.26C95.4244 148.033 95.0377 147.853 94.5577 147.72C94.0777 147.573 93.5444 147.44 92.9577 147.32C92.3844 147.187 91.8044 147.027 91.2177 146.84C90.6444 146.653 90.1177 146.413 89.6377 146.12C89.1577 145.827 88.7644 145.44 88.4577 144.96C88.1644 144.48 88.0177 143.867 88.0177 143.12C88.0177 142.32 88.2311 141.593 88.6577 140.94C89.0977 140.273 89.7511 139.747 90.6177 139.36C91.4977 138.96 92.5977 138.76 93.9177 138.76C94.7977 138.76 95.6644 138.867 96.5177 139.08C97.3711 139.28 98.1244 139.587 98.7777 140L97.7777 142.46C97.1244 142.087 96.4711 141.813 95.8177 141.64C95.1644 141.453 94.5244 141.36 93.8977 141.36C93.2711 141.36 92.7577 141.433 92.3577 141.58C91.9577 141.727 91.6711 141.92 91.4977 142.16C91.3244 142.387 91.2377 142.653 91.2377 142.96C91.2377 143.32 91.3844 143.613 91.6777 143.84C91.9711 144.053 92.3577 144.227 92.8377 144.36C93.3177 144.493 93.8444 144.627 94.4177 144.76C95.0044 144.893 95.5844 145.047 96.1577 145.22C96.7444 145.393 97.2777 145.627 97.7577 145.92C98.2377 146.213 98.6244 146.6 98.9177 147.08C99.2244 147.56 99.3777 148.167 99.3777 148.9C99.3777 149.687 99.1577 150.407 98.7177 151.06C98.2777 151.713 97.6177 152.24 96.7377 152.64C95.8711 153.04 94.7711 153.24 93.4377 153.24ZM105.772 153.16C104.505 153.16 103.518 152.84 102.812 152.2C102.105 151.547 101.752 150.58 101.752 149.3V139.86H104.872V149.26C104.872 149.713 104.992 150.067 105.232 150.32C105.472 150.56 105.798 150.68 106.212 150.68C106.705 150.68 107.125 150.547 107.472 150.28L108.312 152.48C107.992 152.707 107.605 152.88 107.152 153C106.712 153.107 106.252 153.16 105.772 153.16ZM100.092 144.88V142.48H107.552V144.88H100.092ZM116.663 153V150.9L116.463 150.44V146.68C116.463 146.013 116.256 145.493 115.843 145.12C115.443 144.747 114.823 144.56 113.983 144.56C113.41 144.56 112.843 144.653 112.283 144.84C111.736 145.013 111.27 145.253 110.883 145.56L109.763 143.38C110.35 142.967 111.056 142.647 111.883 142.42C112.71 142.193 113.55 142.08 114.403 142.08C116.043 142.08 117.316 142.467 118.223 143.24C119.13 144.013 119.583 145.22 119.583 146.86V153H116.663ZM113.383 153.16C112.543 153.16 111.823 153.02 111.223 152.74C110.623 152.447 110.163 152.053 109.843 151.56C109.523 151.067 109.363 150.513 109.363 149.9C109.363 149.26 109.516 148.7 109.823 148.22C110.143 147.74 110.643 147.367 111.323 147.1C112.003 146.82 112.89 146.68 113.983 146.68H116.843V148.5H114.323C113.59 148.5 113.083 148.62 112.803 148.86C112.536 149.1 112.403 149.4 112.403 149.76C112.403 150.16 112.556 150.48 112.863 150.72C113.183 150.947 113.616 151.06 114.163 151.06C114.683 151.06 115.15 150.94 115.563 150.7C115.976 150.447 116.276 150.08 116.463 149.6L116.943 151.04C116.716 151.733 116.303 152.26 115.703 152.62C115.103 152.98 114.33 153.16 113.383 153.16ZM126.807 153.16C125.54 153.16 124.553 152.84 123.847 152.2C123.14 151.547 122.787 150.58 122.787 149.3V139.86H125.907V149.26C125.907 149.713 126.027 150.067 126.267 150.32C126.507 150.56 126.833 150.68 127.247 150.68C127.74 150.68 128.16 150.547 128.507 150.28L129.347 152.48C129.027 152.707 128.64 152.88 128.187 153C127.747 153.107 127.287 153.16 126.807 153.16ZM121.127 144.88V142.48H128.587V144.88H121.127ZM131.098 153V142.24H134.218V153H131.098ZM132.658 140.74C132.085 140.74 131.618 140.573 131.258 140.24C130.898 139.907 130.718 139.493 130.718 139C130.718 138.507 130.898 138.093 131.258 137.76C131.618 137.427 132.085 137.26 132.658 137.26C133.232 137.26 133.698 137.42 134.058 137.74C134.418 138.047 134.598 138.447 134.598 138.94C134.598 139.46 134.418 139.893 134.058 140.24C133.712 140.573 133.245 140.74 132.658 140.74ZM140.734 153.16C139.814 153.16 138.927 153.053 138.074 152.84C137.234 152.613 136.567 152.333 136.074 152L137.114 149.76C137.607 150.067 138.187 150.32 138.854 150.52C139.534 150.707 140.2 150.8 140.854 150.8C141.574 150.8 142.08 150.713 142.374 150.54C142.68 150.367 142.834 150.127 142.834 149.82C142.834 149.567 142.714 149.38 142.474 149.26C142.247 149.127 141.94 149.027 141.554 148.96C141.167 148.893 140.74 148.827 140.274 148.76C139.82 148.693 139.36 148.607 138.894 148.5C138.427 148.38 138 148.207 137.614 147.98C137.227 147.753 136.914 147.447 136.674 147.06C136.447 146.673 136.334 146.173 136.334 145.56C136.334 144.88 136.527 144.28 136.914 143.76C137.314 143.24 137.887 142.833 138.634 142.54C139.38 142.233 140.274 142.08 141.314 142.08C142.047 142.08 142.794 142.16 143.554 142.32C144.314 142.48 144.947 142.713 145.454 143.02L144.414 145.24C143.894 144.933 143.367 144.727 142.834 144.62C142.314 144.5 141.807 144.44 141.314 144.44C140.62 144.44 140.114 144.533 139.794 144.72C139.474 144.907 139.314 145.147 139.314 145.44C139.314 145.707 139.427 145.907 139.654 146.04C139.894 146.173 140.207 146.28 140.594 146.36C140.98 146.44 141.4 146.513 141.854 146.58C142.32 146.633 142.787 146.72 143.254 146.84C143.72 146.96 144.14 147.133 144.514 147.36C144.9 147.573 145.214 147.873 145.454 148.26C145.694 148.633 145.814 149.127 145.814 149.74C145.814 150.407 145.614 151 145.214 151.52C144.814 152.027 144.234 152.427 143.474 152.72C142.727 153.013 141.814 153.16 140.734 153.16ZM152.139 153.16C150.872 153.16 149.885 152.84 149.179 152.2C148.472 151.547 148.119 150.58 148.119 149.3V139.86H151.239V149.26C151.239 149.713 151.359 150.067 151.599 150.32C151.839 150.56 152.165 150.68 152.579 150.68C153.072 150.68 153.492 150.547 153.839 150.28L154.679 152.48C154.359 152.707 153.972 152.88 153.519 153C153.079 153.107 152.619 153.16 152.139 153.16ZM146.459 144.88V142.48H153.919V144.88H146.459ZM156.43 153V142.24H159.55V153H156.43ZM157.99 140.74C157.417 140.74 156.95 140.573 156.59 140.24C156.23 139.907 156.05 139.493 156.05 139C156.05 138.507 156.23 138.093 156.59 137.76C156.95 137.427 157.417 137.26 157.99 137.26C158.564 137.26 159.03 137.42 159.39 137.74C159.75 138.047 159.93 138.447 159.93 138.94C159.93 139.46 159.75 139.893 159.39 140.24C159.044 140.573 158.577 140.74 157.99 140.74ZM167.646 153.16C166.486 153.16 165.453 152.927 164.546 152.46C163.639 151.98 162.926 151.32 162.406 150.48C161.899 149.64 161.646 148.687 161.646 147.62C161.646 146.54 161.899 145.587 162.406 144.76C162.926 143.92 163.639 143.267 164.546 142.8C165.453 142.32 166.486 142.08 167.646 142.08C168.779 142.08 169.766 142.32 170.606 142.8C171.446 143.267 172.066 143.94 172.466 144.82L170.046 146.12C169.766 145.613 169.413 145.24 168.986 145C168.573 144.76 168.119 144.64 167.626 144.64C167.093 144.64 166.613 144.76 166.186 145C165.759 145.24 165.419 145.58 165.166 146.02C164.926 146.46 164.806 146.993 164.806 147.62C164.806 148.247 164.926 148.78 165.166 149.22C165.419 149.66 165.759 150 166.186 150.24C166.613 150.48 167.093 150.6 167.626 150.6C168.119 150.6 168.573 150.487 168.986 150.26C169.413 150.02 169.766 149.64 170.046 149.12L172.466 150.44C172.066 151.307 171.446 151.98 170.606 152.46C169.766 152.927 168.779 153.16 167.646 153.16Z" fill="#2B3F6C"/>
<mask id="mask0_22_98" style="mask-type:alpha" maskUnits="userSpaceOnUse" x="73" y="67" width="115" height="61">
<rect x="73.875" y="67" width="113.182" height="60.3639" fill="#D9D9D9"/>
</mask>
<g mask="url(#mask0_22_98)">
<mask id="path-4-inside-1_22_98" fill="white">
<path d="M77.2421 125.034C75.5746 125.034 74.2145 123.681 74.3023 122.016C74.6375 115.662 76.0295 109.404 78.4256 103.511C81.2004 96.6872 85.2673 90.487 90.3943 85.2644C95.5213 80.0418 101.608 75.8989 108.307 73.0725C114.057 70.6462 120.162 69.2306 126.362 68.8785C128.058 68.7821 129.436 70.1682 129.436 71.8669C129.436 73.5655 128.057 74.9323 126.362 75.0404C120.956 75.3853 115.635 76.6384 110.618 78.7555C104.652 81.2728 99.2306 84.9626 94.6643 89.614C90.098 94.2654 86.4759 99.7875 84.0046 105.865C81.912 111.011 80.6793 116.47 80.3507 122.016C80.2521 123.681 78.9096 125.034 77.2421 125.034Z"/>
</mask>
<path d="M77.2421 125.034C75.5746 125.034 74.2145 123.681 74.3023 122.016C74.6375 115.662 76.0295 109.404 78.4256 103.511C81.2004 96.6872 85.2673 90.487 90.3943 85.2644C95.5213 80.0418 101.608 75.8989 108.307 73.0725C114.057 70.6462 120.162 69.2306 126.362 68.8785C128.058 68.7821 129.436 70.1682 129.436 71.8669C129.436 73.5655 128.057 74.9323 126.362 75.0404C120.956 75.3853 115.635 76.6384 110.618 78.7555C104.652 81.2728 99.2306 84.9626 94.6643 89.614C90.098 94.2654 86.4759 99.7875 84.0046 105.865C81.912 111.011 80.6793 116.47 80.3507 122.016C80.2521 123.681 78.9096 125.034 77.2421 125.034Z" stroke="#FF718B" stroke-width="28.3966" stroke-linecap="round" stroke-linejoin="round" mask="url(#path-4-inside-1_22_98)"/>
<mask id="path-5-inside-2_22_98" fill="white">
<path d="M132.555 71.8465C132.621 70.182 134.025 68.8777 135.684 69.0294C141.916 69.5995 148.008 71.187 153.707 73.7261C155.253 74.4146 155.833 76.2774 155.039 77.7715C154.262 79.2339 152.458 79.7926 150.942 79.126C146.033 76.9676 140.802 75.5994 135.45 75.074C133.789 74.9109 132.488 73.5145 132.555 71.8465Z"/>
</mask>
<path d="M132.555 71.8465C132.621 70.182 134.025 68.8777 135.684 69.0294C141.916 69.5995 148.008 71.187 153.707 73.7261C155.253 74.4146 155.833 76.2774 155.039 77.7715C154.262 79.2339 152.458 79.7926 150.942 79.126C146.033 76.9676 140.802 75.5994 135.45 75.074C133.789 74.9109 132.488 73.5145 132.555 71.8465Z" stroke="#FCB5C3" stroke-width="28.3966" stroke-linecap="round" stroke-linejoin="round" mask="url(#path-5-inside-2_22_98)"/>
<mask id="path-6-inside-3_22_98" fill="white">
<path d="M157.775 79.1649C158.637 77.7503 160.479 77.2812 161.861 78.194C166.084 80.9833 169.902 84.3224 173.21 88.1197C174.332 89.4078 174.064 91.3602 172.696 92.3841C171.363 93.3825 169.483 93.1213 168.383 91.8704C165.565 88.6663 162.338 85.8327 158.781 83.4401C157.375 82.4941 156.893 80.6124 157.775 79.1649Z"/>
</mask>
<path d="M157.775 79.1649C158.637 77.7503 160.479 77.2812 161.861 78.194C166.084 80.9833 169.902 84.3224 173.21 88.1197C174.332 89.4078 174.064 91.3602 172.696 92.3841C171.363 93.3825 169.483 93.1213 168.383 91.8704C165.565 88.6663 162.338 85.8327 158.781 83.4401C157.375 82.4941 156.893 80.6124 157.775 79.1649Z" stroke="#FFEB3A" stroke-width="28.3966" stroke-linecap="round" stroke-linejoin="round" mask="url(#path-6-inside-3_22_98)"/>
<mask id="path-7-inside-4_22_98" fill="white">
<path d="M174.605 94.8155C175.997 93.8953 177.877 94.2562 178.745 95.6812C183.608 103.671 186.336 112.739 186.673 122.04C186.734 123.736 185.322 125.085 183.624 125.052C181.925 125.019 180.586 123.612 180.512 121.914C180.164 113.893 177.821 106.077 173.688 99.1502C172.812 97.6824 173.179 95.7583 174.605 94.8155Z"/>
</mask>
<path d="M174.605 94.8155C175.997 93.8953 177.877 94.2562 178.745 95.6812C183.608 103.671 186.336 112.739 186.673 122.04C186.734 123.736 185.322 125.085 183.624 125.052C181.925 125.019 180.586 123.612 180.512 121.914C180.164 113.893 177.821 106.077 173.688 99.1502C172.812 97.6824 173.179 95.7583 174.605 94.8155Z" stroke="#7FE47E" stroke-width="28.3966" stroke-linecap="round" stroke-linejoin="round" mask="url(#path-7-inside-4_22_98)"/>
<g filter="url(#filter1_d_22_98)">
<circle cx="180.44" cy="106.616" r="5.70432" fill="white"/>
<circle cx="180.44" cy="106.616" r="3.5" stroke="#7FE47E" stroke-width="4.40863"/>
</g>
</g>
<path d="M103.189 122V118.85L111.289 111.2C111.929 110.62 112.399 110.1 112.699 109.64C112.999 109.18 113.199 108.76 113.299 108.38C113.419 108 113.479 107.65 113.479 107.33C113.479 106.49 113.189 105.85 112.609 105.41C112.049 104.95 111.219 104.72 110.119 104.72C109.239 104.72 108.419 104.89 107.659 105.23C106.919 105.57 106.289 106.1 105.769 106.82L102.229 104.54C103.029 103.34 104.149 102.39 105.589 101.69C107.029 100.99 108.689 100.64 110.569 100.64C112.129 100.64 113.489 100.9 114.649 101.42C115.829 101.92 116.739 102.63 117.379 103.55C118.039 104.47 118.369 105.57 118.369 106.85C118.369 107.53 118.279 108.21 118.099 108.89C117.939 109.55 117.599 110.25 117.079 110.99C116.579 111.73 115.839 112.56 114.859 113.48L108.139 119.81L107.209 118.04H119.059V122H103.189ZM129.765 122.36C128.005 122.36 126.465 122.1 125.145 121.58C123.825 121.04 122.795 120.29 122.055 119.33C121.315 118.35 120.945 117.21 120.945 115.91C120.945 114.61 121.305 113.51 122.025 112.61C122.765 111.69 123.795 111 125.115 110.54C126.435 110.06 127.985 109.82 129.765 109.82C131.565 109.82 133.125 110.06 134.445 110.54C135.785 111 136.815 111.69 137.535 112.61C138.275 113.51 138.645 114.61 138.645 115.91C138.645 117.21 138.275 118.35 137.535 119.33C136.795 120.29 135.755 121.04 134.415 121.58C133.095 122.1 131.545 122.36 129.765 122.36ZM129.765 118.79C130.985 118.79 131.945 118.52 132.645 117.98C133.365 117.44 133.725 116.7 133.725 115.76C133.725 114.82 133.365 114.09 132.645 113.57C131.945 113.03 130.985 112.76 129.765 112.76C128.565 112.76 127.615 113.03 126.915 113.57C126.215 114.09 125.865 114.82 125.865 115.76C125.865 116.7 126.215 117.44 126.915 117.98C127.615 118.52 128.565 118.79 129.765 118.79ZM129.765 112.28C128.145 112.28 126.725 112.06 125.505 111.62C124.305 111.18 123.365 110.54 122.685 109.7C122.025 108.84 121.695 107.82 121.695 106.64C121.695 105.4 122.035 104.34 122.715 103.46C123.395 102.56 124.345 101.87 125.565 101.39C126.785 100.89 128.185 100.64 129.765 100.64C131.385 100.64 132.795 100.89 133.995 101.39C135.215 101.87 136.165 102.56 136.845 103.46C137.545 104.34 137.895 105.4 137.895 106.64C137.895 107.82 137.555 108.84 136.875 109.7C136.215 110.54 135.275 111.18 134.055 111.62C132.835 112.06 131.405 112.28 129.765 112.28ZM129.765 109.43C130.785 109.43 131.585 109.2 132.165 108.74C132.765 108.28 133.065 107.65 133.065 106.85C133.065 106.01 132.755 105.36 132.135 104.9C131.535 104.44 130.745 104.21 129.765 104.21C128.805 104.21 128.025 104.44 127.425 104.9C126.825 105.36 126.525 106.01 126.525 106.85C126.525 107.65 126.815 108.28 127.395 108.74C127.975 109.2 128.765 109.43 129.765 109.43ZM150.259 122.36C148.339 122.36 146.669 121.96 145.249 121.16C143.849 120.36 142.769 119.19 142.009 117.65C141.249 116.11 140.869 114.21 140.869 111.95C140.869 109.53 141.319 107.48 142.219 105.8C143.139 104.12 144.399 102.84 145.999 101.96C147.619 101.08 149.479 100.64 151.579 100.64C152.699 100.64 153.769 100.76 154.789 101C155.809 101.24 156.689 101.6 157.429 102.08L155.629 105.65C155.049 105.25 154.429 104.98 153.769 104.84C153.109 104.68 152.419 104.6 151.699 104.6C149.879 104.6 148.439 105.15 147.379 106.25C146.319 107.35 145.789 108.98 145.789 111.14C145.789 111.5 145.789 111.9 145.789 112.34C145.809 112.78 145.869 113.22 145.969 113.66L144.619 112.4C144.999 111.62 145.489 110.97 146.089 110.45C146.689 109.91 147.399 109.51 148.219 109.25C149.059 108.97 149.979 108.83 150.979 108.83C152.339 108.83 153.559 109.1 154.639 109.64C155.719 110.18 156.579 110.94 157.219 111.92C157.879 112.9 158.209 114.05 158.209 115.37C158.209 116.79 157.849 118.03 157.129 119.09C156.429 120.13 155.479 120.94 154.279 121.52C153.099 122.08 151.759 122.36 150.259 122.36ZM149.989 118.73C150.669 118.73 151.269 118.61 151.789 118.37C152.329 118.11 152.749 117.74 153.049 117.26C153.349 116.78 153.499 116.23 153.499 115.61C153.499 114.65 153.169 113.89 152.509 113.33C151.869 112.75 151.009 112.46 149.929 112.46C149.209 112.46 148.579 112.6 148.039 112.88C147.499 113.14 147.069 113.51 146.749 113.99C146.449 114.45 146.299 114.99 146.299 115.61C146.299 116.21 146.449 116.75 146.749 117.23C147.049 117.69 147.469 118.06 148.009 118.34C148.549 118.6 149.209 118.73 149.989 118.73Z" fill="#FF718B"/>
<defs>
<filter id="filter0_d_22_98" x="0" y="0" width="259" height="231" filterUnits="userSpaceOnUse" color-interpolation-filters="sRGB">
<feFlood flood-opacity="0" result="BackgroundImageFix"/>
<feColorMatrix in="SourceAlpha" type="matrix" values="0 0 0 0 0 0 0 0 0 0 0 0 0 0 0 0 0 0 127 0" result="hardAlpha"/>
<feOffset/>
<feGaussianBlur stdDeviation="25"/>
<feComposite in2="hardAlpha" operator="out"/>
<feColorMatrix type="matrix" values="0 0 0 0 0.203922 0 0 0 0 0.6 0 0 0 0 0.835294 0 0 0 0.2 0"/>
<feBlend mode="normal" in2="BackgroundImageFix" result="effect1_dropShadow_22_98"/>
<feBlend mode="normal" in="SourceGraphic" in2="effect1_dropShadow_22_98" result="shape"/>
</filter>
<filter id="filter1_d_22_98" x="166.736" y="100.912" width="27.4086" height="27.4086" filterUnits="userSpaceOnUse" color-interpolation-filters="sRGB">
<feFlood flood-opacity="0" result="BackgroundImageFix"/>
<feColorMatrix in="SourceAlpha" type="matrix" values="0 0 0 0 0 0 0 0 0 0 0 0 0 0 0 0 0 0 127 0" result="hardAlpha"/>
<feOffset dy="8"/>
<feGaussianBlur stdDeviation="4"/>
<feComposite in2="hardAlpha" operator="out"/>
<feColorMatrix type="matrix" values="0 0 0 0 0.0509804 0 0 0 0 0.0392157 0 0 0 0 0.172549 0 0 0 0.08 0"/>
<feBlend mode="normal" in2="BackgroundImageFix" result="effect1_dropShadow_22_98"/>
<feBlend mode="normal" in="SourceGraphic" in2="effect1_dropShadow_22_98" result="shape"/>
</filter>
</defs>
</svg>
